<svg width="170" height="195" viewBox="0 0 170 195" fill="none" xmlns="http://www.w3.org/2000/svg">
<rect width="170" height="152" rx="28" fill="#C4C4C4"/>
<g clip-path="url(#clip0)">
<path opacity="0.1" d="M83.0956 103.036C77.1549 100.895 70.8738 99.0995 64.4545 99.2845C55.0172 99.5574 45.9434 104.456 41.4682 111.695C37.6854 117.829 37.1805 125.039 35.5292 131.861C33.4947 140.265 29.6329 148.24 25.5113 156.04C23.2975 160.229 20.9621 164.507 20.5772 169.11C20.0493 175.501 23.5261 181.89 29.0079 186.173C34.4897 190.455 41.784 192.738 49.1128 193.271C53.0124 193.553 57.0879 193.335 60.5599 191.771C64.2325 190.122 66.9183 187.105 70.6057 185.475C74.0234 183.965 78.0069 183.771 81.8407 183.993C86.8057 184.273 91.723 185.211 96.4884 186.788C101.832 188.569 106.797 191.131 112.129 192.937C117.462 194.744 123.422 195.766 128.886 194.313C134.016 192.95 138.085 189.591 141.754 186.187C147.667 180.717 153.165 174.713 158.193 168.236C161.507 163.951 164.594 159.427 166.074 154.421C168.901 144.848 165.114 134.009 156.638 127.417C149.617 121.953 140.172 119.54 130.922 118.075C122.486 116.725 112.727 116.591 104.973 113.153C97.5788 109.865 90.852 105.831 83.0956 103.036Z" fill="#6C63FF"/>
<path opacity="0.1" d="M158.821 135.658C160.92 135.658 162.622 135.398 162.622 135.077C162.622 134.757 160.92 134.497 158.821 134.497C156.722 134.497 155.02 134.757 155.02 135.077C155.02 135.398 156.722 135.658 158.821 135.658Z" fill="#6C63FF"/>
<path opacity="0.1" d="M144.26 137.303C146.36 137.303 148.061 137.043 148.061 136.722C148.061 136.402 146.36 136.142 144.26 136.142C142.161 136.142 140.459 136.402 140.459 136.722C140.459 137.043 142.161 137.303 144.26 137.303Z" fill="#6C63FF"/>
<path opacity="0.1" d="M127.109 135.077C129.209 135.077 130.91 134.817 130.91 134.497C130.91 134.176 129.209 133.916 127.109 133.916C125.01 133.916 123.309 134.176 123.309 134.497C123.309 134.817 125.01 135.077 127.109 135.077Z" fill="#6C63FF"/>
<path opacity="0.1" d="M150.088 141.818C151.58 141.818 152.79 141.633 152.79 141.404C152.79 141.176 151.58 140.99 150.088 140.99C148.595 140.99 147.385 141.176 147.385 141.404C147.385 141.633 148.595 141.818 150.088 141.818Z" fill="#6C63FF"/>
<path opacity="0.1" d="M134.976 141.404C136.468 141.404 137.678 141.219 137.678 140.99C137.678 140.762 136.468 140.576 134.976 140.576C133.484 140.576 132.274 140.762 132.274 140.99C132.274 141.219 133.484 141.404 134.976 141.404Z" fill="#6C63FF"/>
<path d="M144.178 136.59C144.178 136.59 149.51 117.126 143.344 109.33C138.739 103.498 133.496 104.201 131.152 104.917C130.545 105.097 129.981 105.422 129.498 105.869C129.015 106.315 128.626 106.874 128.356 107.505C127.534 109.475 127.685 112.671 133.471 116.402C143.16 122.651 143.764 131.221 143.764 131.221L144.178 136.59Z" fill="#6C63FF"/>
<path d="M131.986 107.678C131.986 107.678 147.703 113.151 144.178 136.59" stroke="#565987" stroke-miterlimit="10"/>
<path d="M141.163 109.64C141.163 109.64 138.999 111.264 139.683 113.704" stroke="#565987" stroke-miterlimit="10"/>
<path d="M133.563 111.085C133.563 111.085 134.879 109.586 136.496 110.412" stroke="#565987" stroke-miterlimit="10"/>
<path d="M139.775 118.623C139.775 118.623 142.098 117.311 142.698 118.954" stroke="#565987" stroke-miterlimit="10"/>
<path d="M145.523 121.359C145.523 121.359 143.778 121.205 143.747 122.134" stroke="#565987" stroke-miterlimit="10"/>
<path d="M144.394 136.746C144.394 136.746 138.144 122.599 136.435 122.909C135.613 123.055 135.244 123.949 135.075 124.845C134.864 126.004 134.983 127.208 135.415 128.289C136.302 130.553 138.682 134.852 144.394 136.746Z" fill="#6C63FF"/>
<path d="M136.481 125.594C136.481 125.594 143.035 136.178 144.302 136.643" stroke="#565987" stroke-miterlimit="10"/>
<path d="M135.879 127.247H137.409" stroke="#565987" stroke-miterlimit="10"/>
<path d="M137.711 131.119L140.109 131.232" stroke="#565987" stroke-miterlimit="10"/>
<path d="M139.17 128.021L138.91 129.412" stroke="#565987" stroke-miterlimit="10"/>
<path d="M141.72 132.255L141.673 133.518" stroke="#565987" stroke-miterlimit="10"/>
<path d="M144.209 136.746C144.209 136.746 150.459 122.599 152.168 122.909C152.99 123.055 153.359 123.949 153.528 124.845C153.739 126.004 153.62 127.208 153.188 128.289C152.301 130.553 149.921 134.852 144.209 136.746Z" fill="#6C63FF"/>
<path d="M152.122 125.594C152.122 125.594 145.568 136.178 144.302 136.643" stroke="#565987" stroke-miterlimit="10"/>
<path d="M152.724 127.247H151.194" stroke="#565987" stroke-miterlimit="10"/>
<path d="M150.892 131.119L148.494 131.232" stroke="#565987" stroke-miterlimit="10"/>
<path d="M149.433 128.021L149.693 129.412" stroke="#565987" stroke-miterlimit="10"/>
<path d="M146.882 132.255L146.93 133.518" stroke="#565987" stroke-miterlimit="10"/>
<path d="M133.488 140.051C133.318 139.896 133.194 139.688 133.132 139.453C133.105 139.335 133.115 139.211 133.16 139.1C133.205 138.989 133.283 138.898 133.381 138.843C133.609 138.746 133.853 138.922 134.039 139.102C134.224 139.281 134.435 139.481 134.677 139.444C134.553 139.319 134.46 139.159 134.407 138.982C134.355 138.804 134.344 138.615 134.377 138.431C134.387 138.355 134.416 138.284 134.46 138.224C134.586 138.074 134.816 138.14 134.968 138.257C135.45 138.636 135.585 139.365 135.588 140.021C135.611 139.778 135.611 139.532 135.588 139.289C135.578 139.167 135.596 139.045 135.639 138.933C135.681 138.821 135.748 138.722 135.833 138.646C135.947 138.576 136.076 138.542 136.206 138.547C136.314 138.53 136.423 138.538 136.528 138.571C136.633 138.604 136.73 138.661 136.813 138.739C136.996 138.959 136.948 139.327 136.788 139.569C136.609 139.79 136.397 139.976 136.162 140.118C135.982 140.237 135.828 140.4 135.713 140.595C135.7 140.622 135.689 140.65 135.68 140.679H134.321C134.019 140.512 133.739 140.301 133.488 140.051Z" fill="#6C63FF"/>
<path d="M157.281 134.352C157.111 134.198 156.987 133.989 156.926 133.755C156.899 133.637 156.909 133.512 156.954 133.402C156.999 133.291 157.077 133.201 157.175 133.147C157.403 133.05 157.647 133.225 157.832 133.403C158.018 133.581 158.23 133.784 158.472 133.746C158.348 133.62 158.254 133.461 158.201 133.283C158.149 133.106 158.138 132.916 158.171 132.733C158.181 132.657 158.21 132.586 158.255 132.527C158.382 132.377 158.61 132.441 158.762 132.56C159.244 132.938 159.378 133.66 159.382 134.324C159.406 134.081 159.406 133.835 159.382 133.592C159.372 133.47 159.39 133.348 159.432 133.236C159.475 133.124 159.542 133.026 159.627 132.949C159.742 132.881 159.87 132.847 160 132.852C160.107 132.833 160.217 132.84 160.321 132.871C160.426 132.903 160.523 132.958 160.607 133.035C160.791 133.253 160.744 133.621 160.582 133.863C160.404 134.089 160.192 134.278 159.956 134.423C159.776 134.542 159.622 134.705 159.507 134.9C159.493 134.926 159.482 134.955 159.474 134.984H158.115C157.813 134.816 157.533 134.603 157.281 134.352Z" fill="#6C63FF"/>
<path d="M149.351 140.051C149.181 139.896 149.057 139.688 148.995 139.453C148.968 139.335 148.978 139.211 149.023 139.1C149.068 138.989 149.146 138.898 149.244 138.843C149.472 138.746 149.716 138.922 149.902 139.102C150.088 139.281 150.298 139.481 150.54 139.444C150.416 139.319 150.322 139.159 150.27 138.982C150.217 138.804 150.206 138.615 150.239 138.431C150.25 138.355 150.279 138.284 150.323 138.224C150.449 138.074 150.68 138.14 150.831 138.257C151.313 138.636 151.448 139.365 151.451 140.021C151.477 139.778 151.48 139.532 151.459 139.289C151.45 139.167 151.467 139.045 151.51 138.933C151.553 138.821 151.619 138.722 151.704 138.646C151.819 138.576 151.947 138.542 152.078 138.547C152.185 138.53 152.295 138.538 152.399 138.571C152.504 138.604 152.601 138.661 152.685 138.739C152.867 138.959 152.819 139.327 152.66 139.569C152.48 139.79 152.269 139.976 152.033 140.118C151.853 140.237 151.699 140.4 151.584 140.595C151.571 140.622 151.56 140.65 151.551 140.679H150.193C149.888 140.513 149.605 140.301 149.351 140.051Z" fill="#6C63FF"/>
<path d="M126.863 128.532C126.863 128.532 126.353 129.274 127.098 130.393C127.843 131.513 128.455 132.46 128.208 133.158C128.208 133.158 127.085 131.079 126.17 131.049C125.256 131.02 125.856 129.784 126.863 128.532Z" fill="#6C63FF"/>
<path opacity="0.1" d="M126.863 128.532C126.818 128.604 126.782 128.682 126.757 128.765C125.866 129.932 125.391 131.022 126.248 131.049C127.047 131.075 128.006 132.665 128.234 133.064C128.234 133.095 128.218 133.126 128.208 133.156C128.208 133.156 127.085 131.077 126.17 131.047C125.256 131.018 125.856 129.784 126.863 128.532Z" fill="black"/>
<path d="M125.915 129.478C125.915 129.74 125.942 129.95 125.975 129.95C126.008 129.95 126.033 129.74 126.033 129.478C126.033 129.216 126 129.34 125.968 129.34C125.937 129.34 125.915 129.217 125.915 129.478Z" fill="#FFD037"/>
<path d="M125.59 129.789C125.795 129.915 125.976 129.99 125.991 129.959C126.006 129.928 125.853 129.8 125.647 129.675C125.442 129.551 125.522 129.641 125.506 129.675C125.489 129.71 125.384 129.664 125.59 129.789Z" fill="#FFD037"/>
<path d="M129.552 128.532C129.552 128.532 130.062 129.274 129.317 130.393C128.572 131.513 127.96 132.46 128.208 133.158C128.208 133.158 129.33 131.079 130.244 131.049C131.159 131.02 130.558 129.784 129.552 128.532Z" fill="#6C63FF"/>
<path opacity="0.1" d="M129.552 128.532C129.597 128.604 129.632 128.682 129.657 128.765C130.548 129.932 131.024 131.022 130.167 131.049C129.368 131.075 128.409 132.665 128.18 133.064C128.188 133.095 128.197 133.126 128.208 133.156C128.208 133.156 129.33 131.077 130.244 131.047C131.159 131.018 130.558 129.784 129.552 128.532Z" fill="black"/>
<path d="M130.5 129.478C130.5 129.74 130.473 129.95 130.44 129.95C130.407 129.95 130.382 129.74 130.382 129.478C130.382 129.216 130.415 129.34 130.447 129.34C130.478 129.34 130.5 129.217 130.5 129.478Z" fill="#FFD037"/>
<path d="M130.825 129.789C130.619 129.915 130.438 129.99 130.423 129.959C130.409 129.928 130.562 129.8 130.767 129.675C130.973 129.551 130.892 129.641 130.909 129.675C130.925 129.71 131.03 129.664 130.825 129.789Z" fill="#FFD037"/>
<path d="M130.336 133.061C130.336 133.061 128.914 133.013 128.484 132.672C128.055 132.331 126.294 131.925 126.182 132.471C126.07 133.017 124.044 135.185 125.649 135.2C127.254 135.215 129.386 134.922 129.813 134.63C130.241 134.339 130.336 133.061 130.336 133.061Z" fill="#A8A8A8"/>
<path opacity="0.2" d="M125.626 135.01C127.233 135.024 129.361 134.731 129.79 134.44C130.119 134.22 130.246 133.425 130.284 133.059H130.33C130.33 133.059 130.241 134.341 129.812 134.629C129.382 134.916 127.256 135.213 125.647 135.198C125.183 135.198 125.024 135.015 125.032 134.738C125.103 134.905 125.281 135.008 125.626 135.01Z" fill="black"/>
<path opacity="0.1" d="M36.215 60.048C38.1798 60.048 39.7725 58.2741 39.7725 56.0859C39.7725 53.8977 38.1798 52.1238 36.215 52.1238C34.2503 52.1238 32.6575 53.8977 32.6575 56.0859C32.6575 58.2741 34.2503 60.048 36.215 60.048Z" fill="#6C63FF"/>
<path opacity="0.1" d="M97.7449 53.7944C99.7097 53.7944 101.302 52.0205 101.302 49.8322C101.302 47.644 99.7097 45.8701 97.7449 45.8701C95.7802 45.8701 94.1874 47.644 94.1874 49.8322C94.1874 52.0205 95.7802 53.7944 97.7449 53.7944Z" fill="#6C63FF"/>
<path opacity="0.1" d="M154.183 69.4468C156.148 69.4468 157.74 67.6729 157.74 65.4847C157.74 63.2965 156.148 61.5226 154.183 61.5226C152.218 61.5226 150.625 63.2965 150.625 65.4847C150.625 67.6729 152.218 69.4468 154.183 69.4468Z" fill="#6C63FF"/>
<path opacity="0.1" d="M20.962 99.0555C24.2548 99.0555 26.9241 96.0826 26.9241 92.4154C26.9241 88.7481 24.2548 85.7752 20.962 85.7752C17.6693 85.7752 15 88.7481 15 92.4154C15 96.0826 17.6693 99.0555 20.962 99.0555Z" fill="#6C63FF"/>
<path opacity="0.1" d="M26.6774 131.844C29.9701 131.844 32.6394 128.871 32.6394 125.204C32.6394 121.537 29.9701 118.564 26.6774 118.564C23.3846 118.564 20.7153 121.537 20.7153 125.204C20.7153 128.871 23.3846 131.844 26.6774 131.844Z" fill="#6C63FF"/>
<path opacity="0.1" d="M138.339 102.922C141.632 102.922 144.301 99.9495 144.301 96.2823C144.301 92.615 141.632 89.6421 138.339 89.6421C135.047 89.6421 132.377 92.615 132.377 96.2823C132.377 99.9495 135.047 102.922 138.339 102.922Z" fill="#6C63FF"/>
<path d="M89.0379 108.716C88.8273 108.738 88.6135 108.727 88.4046 108.764C88.054 108.842 87.7193 108.991 87.4178 109.205C85.9211 110.154 84.5084 111.458 83.8883 113.246C83.8373 113.356 83.8211 113.482 83.8423 113.603C83.879 113.704 83.9392 113.791 84.0166 113.856L84.5988 114.446C84.6724 114.531 84.7601 114.6 84.857 114.648C85.0141 114.693 85.1797 114.688 85.334 114.631C86.9343 114.223 88.6349 113.752 89.7582 112.418C90.2911 111.786 90.7829 110.916 91.5674 110.892C91.8964 110.892 92.2039 111.033 92.5279 111.076C92.8519 111.118 93.2417 110.964 93.319 110.612C93.3441 110.437 93.3259 110.258 93.2664 110.094L92.7828 108.3C92.6513 107.81 91.324 107.784 90.8816 107.872C90.2072 108.002 89.7533 108.643 89.0379 108.716Z" fill="#65617D"/>
<path d="M94.7351 118.818C94.7121 119.432 94.7565 120.053 94.6661 120.661C94.5865 121.141 94.4487 121.606 94.2565 122.044C93.9607 122.749 93.5848 123.408 93.1381 124.006C92.722 124.556 92.2237 125.072 91.6069 125.288C90.9902 125.504 90.2319 125.349 89.8471 124.77C89.5329 124.299 89.5181 123.671 89.5412 123.083C89.5971 121.638 89.801 120.172 90.3833 118.879C90.6333 118.329 90.9507 117.806 91.2056 117.25C91.7385 116.098 92.0428 114.732 92.9621 113.937C93.5389 114.234 94.1558 114.422 94.7878 114.496C95.0328 114.525 95.7335 114.543 95.8157 114.893C95.8716 115.129 95.4111 115.791 95.3223 116.023C94.9712 116.906 94.7721 117.854 94.7351 118.818Z" fill="#65617D"/>
<path d="M88.2155 92.4007C88.4129 92.9612 88.6629 93.5108 88.7089 94.1079C88.7418 94.4743 88.7089 94.8406 88.7089 95.207C88.7366 95.7089 88.8116 96.2062 88.9326 96.6907L89.8487 100.867C89.9852 101.492 90.1217 102.133 90.051 102.77C90.0033 103.195 89.8652 103.607 89.8668 104.034C89.8843 104.358 89.9306 104.679 90.005 104.992C90.1784 105.961 90.1309 106.962 89.8668 107.905C89.8397 107.976 89.8301 108.054 89.8388 108.13C89.8619 108.249 89.9655 108.322 90.0592 108.379C91.0455 108.98 92.1207 109.379 93.2335 109.557C94.2379 106.896 94.9396 104.105 95.3223 101.25C95.5558 99.5208 95.6693 97.7696 95.9686 96.0533C95.9755 95.9541 96.0133 95.8608 96.0755 95.7895C96.1874 95.6851 96.3568 95.751 96.4884 95.8206C98.1692 96.7208 99.7862 97.7618 101.325 98.9347C101.867 98.154 102.247 97.2504 102.44 96.2878C102.633 95.3252 102.634 94.3272 102.442 93.3642C102.249 92.534 101.973 91.7304 101.62 90.9683C101.244 90.0412 100.775 89.1644 100.222 88.3544C99.0015 86.6508 97.212 85.5627 95.37 84.8245C94.2499 84.3739 93.097 84.0405 91.9457 83.6998C91.301 83.5075 90.2204 82.881 89.5938 83.3683C88.9359 83.8757 88.4984 85.1341 88.2287 85.9328C87.8957 86.9233 87.7145 87.9692 87.6925 89.0266C87.6654 90.1787 87.8432 91.3254 88.2155 92.4007Z" fill="#3F3D56"/>
<path d="M101.437 97.4363C101.094 97.8539 101.383 98.5207 101.317 99.0849C101.274 99.3396 101.192 99.5843 101.075 99.8084L99.5015 103.25C99.2384 103.767 99.0413 104.322 98.916 104.899C98.7005 106.141 99.143 107.537 98.5772 108.634C98.3946 108.987 98.1117 109.291 98.0361 109.691C97.9802 109.982 98.0361 110.286 98.0081 110.581C97.9703 110.927 97.8042 111.239 97.7121 111.572C97.6402 111.892 97.5891 112.218 97.5591 112.547C97.3596 113.947 96.7009 115.216 95.7105 116.108C95.1429 116.643 94.4142 116.919 93.671 116.881C92.9375 116.811 92.2089 116.256 92.0592 115.454C92.0082 115.181 92.0181 114.877 91.8651 114.655C91.648 114.338 91.1908 114.325 90.9819 114.001L91.7911 112.517C92.0428 112.057 92.2993 111.578 92.3405 111.041C92.3898 110.383 92.1053 109.727 92.2072 109.077C92.2944 108.518 92.6546 108.053 92.7631 107.5C92.898 106.813 92.6283 106.119 92.4819 105.434C92.1234 103.747 92.5247 101.988 92.9243 100.305C93.4556 98.0774 94 95.8152 95.0756 93.846C97.2219 95.1337 99.1956 96.3702 101.437 97.4363Z" fill="#3F3D56"/>
<path d="M101.457 62.5447C101.585 62.933 101.516 63.3635 101.492 63.7756C101.434 64.6915 101.608 65.6074 101.569 66.5361C101.529 67.4648 101.273 68.3514 101.095 69.2545C100.59 71.8318 100.712 74.5171 100.255 77.1054C99.6906 80.311 98.2482 83.2968 97.9637 86.55C97.8732 87.5832 97.8847 88.6895 97.3765 89.5615C94.3565 88.0809 91.5018 86.2133 88.8701 83.9965C89.4491 79.2138 90.0214 74.4072 89.9441 69.5823C89.9066 69.0007 89.9432 68.4161 90.0527 67.8458C90.1899 67.3668 90.387 66.9117 90.6382 66.494C91.2747 65.3418 91.9753 64.2354 92.6743 63.1309C93.1217 62.4238 93.6052 61.6819 94.319 61.3504C95.0328 61.0188 95.8782 61.1672 96.6561 61.3247C97.5925 61.5152 98.5278 61.7057 99.462 61.8962C100.046 62.0153 101.207 61.7882 101.457 62.5447Z" fill="#6C63FF"/>
<path d="M78.9361 80.8715C78.5525 80.4441 78.134 80.0571 77.6862 79.7157C78.27 78.9244 78.1549 77.7795 78.298 76.7666C78.4152 76.1086 78.5932 75.4659 78.8292 74.8487C78.8884 74.6747 78.9723 74.4823 79.1351 74.4365C79.2351 74.4228 79.3366 74.4405 79.4279 74.4878C79.9213 74.682 80.9509 74.671 81.3341 75.0264C81.7963 75.4587 81.3736 76.3636 81.1992 76.9039C81.0759 77.2666 79.1812 81.1463 78.9361 80.8715Z" fill="#BE6F72"/>
<path d="M80.3686 115.08C80.6164 115.527 80.7782 116.025 80.844 116.545C80.8834 117.066 80.7124 117.635 80.3144 117.91C79.9164 118.185 79.3456 118.093 78.872 117.928C77.8673 117.564 76.9429 116.968 76.1592 116.179C75.3756 115.39 74.7503 114.426 74.3244 113.349C74.1747 112.964 74.0448 112.556 73.78 112.259C73.5833 112.066 73.3649 111.903 73.1303 111.774C72.4839 111.367 71.8606 110.832 71.5613 110.074C71.2619 109.315 71.3968 108.302 72.0168 107.852C72.2101 107.727 72.4236 107.647 72.645 107.616C72.8664 107.584 73.0912 107.602 73.3063 107.669C73.735 107.804 74.1454 108.003 74.5267 108.26C75.1648 108.647 75.9444 108.98 76.5003 109.495C76.9937 109.947 77.4361 110.559 77.8572 111.092C78.3394 111.705 78.7912 112.347 79.2108 113.015C79.3456 113.211 80.4821 114.902 80.3686 115.08Z" fill="#65617D"/>
<path d="M68.313 111.235C68.2571 112.157 68.1109 113.069 67.8772 113.955C67.744 114.453 67.568 114.972 67.1979 115.289C66.8849 115.515 66.5302 115.659 66.1601 115.712C66.031 115.751 65.8962 115.76 65.7637 115.739C65.5368 115.686 65.3756 115.468 65.2358 115.261C64.6865 114.452 64.1519 113.596 63.92 112.614C63.5911 111.191 63.92 109.665 64.4907 108.335C64.6959 107.799 64.995 107.314 65.3706 106.908C65.8347 106.484 66.3924 106.205 66.9857 106.101C67.5926 105.965 68.3377 105.676 68.3821 106.498C68.447 108.077 68.424 109.659 68.313 111.235Z" fill="#65617D"/>
<path d="M77.4131 76.8051C78.548 77.459 79.8078 78.2906 80.0446 79.6883C80.191 80.5419 79.9098 81.4156 79.9558 82.2839C79.9969 83.0477 80.2848 83.7859 80.2486 84.5479C80.2102 84.908 80.1553 85.2657 80.0841 85.6195C79.9871 86.2955 80.0446 86.9842 80.02 87.6674C79.9657 89.2061 79.5035 90.6862 79.2799 92.2047C79.1215 93.289 79.0845 94.391 79.1697 95.4855C79.2239 96.1925 79.3341 96.8959 79.3341 97.6066C79.3341 98.1185 79.2962 98.6295 79.2207 99.1343C79.0002 100.721 78.5561 102.258 77.9049 103.69C77.1138 105.425 77.2256 107.663 77.3095 109.607C77.3462 109.874 77.3154 110.148 77.2207 110.398C77.0135 110.817 76.497 110.878 76.0694 110.838C74.4836 110.676 73.0129 109.847 71.9576 108.518C71.8037 108.352 71.6993 108.136 71.6583 107.901C71.6221 107.509 71.905 107.187 72.109 106.863C72.803 105.764 72.627 104.274 72.7093 102.924C72.7693 101.942 72.9801 100.979 73.3326 100.076C73.5366 99.5538 73.7915 99.0391 73.8375 98.4712C73.8803 97.9419 73.7356 97.418 73.5925 96.9124L73.0991 95.1686C72.3343 92.4594 71.5646 89.7337 70.4067 87.204C69.647 87.7545 69.1033 88.6056 68.8853 89.5853C68.4544 91.3108 69.0679 93.2379 68.4807 94.8974C68.3835 95.1276 68.3027 95.3658 68.239 95.61C68.2044 95.8208 68.1912 96.0352 68.1995 96.2493C68.2147 98.0348 68.3125 99.8183 68.4923 101.593C68.5011 101.861 68.5689 102.124 68.6896 102.356C68.7867 102.512 68.9281 102.628 69.0317 102.776C69.3195 103.192 69.2653 103.774 69.1962 104.293L68.8673 106.744C68.8614 106.868 68.8244 106.988 68.7603 107.09C68.6828 107.173 68.5861 107.232 68.4807 107.258C67.4356 107.62 66.3339 107.732 65.2473 107.588C64.9265 107.546 64.6354 107.306 64.3673 107.104C64.3394 106.738 64.7489 106.494 64.7637 106.13C64.7478 105.914 64.6577 105.713 64.5121 105.569C63.9003 104.8 63.17 103.983 63.1766 102.955C63.1766 102.686 63.2341 102.417 63.2259 102.148C63.2045 101.457 62.7769 100.865 62.6273 100.2C62.443 99.378 62.6881 98.5244 62.7819 97.6836C62.9101 96.5515 62.7588 95.4049 62.6174 94.2746L62.0664 90.1275C62.0024 89.4838 61.8879 88.8476 61.7243 88.2261C61.5169 87.6142 61.2735 87.0182 60.9957 86.442C60.4694 85.2513 60.0368 84.0131 59.6059 82.7785C59.469 82.443 59.3829 82.0846 59.351 81.7179C59.3263 81.0896 59.6175 80.4961 59.9793 80.0125C60.657 79.1138 61.582 78.4893 62.6108 78.2357C62.7828 78.1823 62.9635 78.1741 63.1388 78.2119C63.2861 78.2663 63.4245 78.3474 63.5483 78.4518C64.8197 79.378 66.2664 79.9636 67.775 80.1629C69.2836 80.3621 70.8132 80.1696 72.2438 79.6003C72.4083 79.7395 72.7126 79.6791 72.9017 79.5802C73.4297 79.3109 73.8606 78.8621 74.3244 78.4811C75.1878 77.7521 76.3523 77.0597 77.4131 76.8051Z" fill="#3F3D56"/>
<path d="M43.3234 123.847C43.4107 124.127 43.5422 124.388 43.7116 124.618C44.307 125.482 45.1375 126.173 45.5207 127.182C45.6013 127.398 45.6605 127.626 45.7346 127.845C45.9596 128.509 46.3266 129.101 46.8036 129.571C47.1675 129.907 47.5628 130.199 47.9829 130.441C48.7098 130.883 49.496 131.282 50.3216 131.258C50.4876 131.254 50.6529 131.232 50.815 131.192C51.072 131.133 51.3198 131.032 51.5502 130.892C52.0815 130.566 52.537 129.928 52.4318 129.263C52.4105 129.136 52.3746 129.013 52.3249 128.897C52.2376 128.712 52.137 128.535 52.0239 128.368C51.7459 127.939 51.4598 127.499 51.0535 127.224C50.5963 126.913 50.0206 126.836 49.6095 126.451C49.4472 126.288 49.3071 126.099 49.1934 125.891C48.8207 125.253 48.543 124.552 48.371 123.816C48.246 123.266 48.1621 122.663 47.8019 122.26C47.4418 121.857 46.9467 121.766 46.4664 121.674C46.3042 121.637 46.1387 121.619 45.973 121.621C45.7378 121.63 45.4944 121.705 45.274 121.583C45.0537 121.46 44.9796 121.286 44.7132 121.31C44.5011 121.342 44.3012 121.439 44.1359 121.59C43.5109 122.105 43.0965 123.021 43.3234 123.847Z" fill="#3F3D56"/>
<path d="M49.167 124.68C49.2739 125.301 49.4384 125.962 49.8693 126.367C50.144 126.631 50.5272 126.796 50.6637 127.168C50.8002 127.54 50.6242 128.007 50.3972 128.347C50.1074 128.778 49.7483 129.145 49.3381 129.43C48.9894 129.67 48.5733 129.853 48.1736 129.747C47.8447 129.661 47.5848 129.397 47.3397 129.142C46.7773 128.562 46.2016 127.959 45.8858 127.181C45.5569 126.36 45.5404 125.409 45.1819 124.601C44.973 124.131 44.6507 123.718 44.524 123.213C44.4673 123.03 44.4673 122.831 44.524 122.649C44.5853 122.518 44.6781 122.409 44.792 122.333C44.9059 122.258 45.0363 122.219 45.1687 122.222C45.4336 122.232 45.6947 122.294 45.9401 122.405C46.6826 122.7 47.4427 122.937 48.2147 123.114C48.5223 123.178 48.7081 123.176 48.8726 123.508C49.0246 123.879 49.1239 124.275 49.167 124.68Z" fill="#FBBEBE"/>
<path d="M51.0748 129.93C50.9529 130.138 50.8665 130.369 50.8199 130.611C50.7811 130.8 50.775 130.995 50.8018 131.187C51.0588 131.127 51.3065 131.026 51.537 130.886C52.0682 130.56 52.5238 129.923 52.4186 129.258C52.3973 129.131 52.3614 129.008 52.3117 128.891C52.2332 128.872 52.1514 128.876 52.0747 128.902C51.9979 128.929 51.9287 128.978 51.8742 129.043C51.5679 129.291 51.2982 129.59 51.0748 129.93Z" fill="#FBBEBE"/>
<path d="M45.1803 116.012C45.1087 116.184 45.0874 116.376 45.1194 116.562C45.1951 116.928 45.5322 117.139 45.8365 117.305L48.7295 118.881C48.9302 118.984 49.1257 119.1 49.315 119.227C49.8084 119.564 50.1966 120.04 50.6176 120.476C51.0387 120.912 51.5074 121.321 52.065 121.475C52.6216 121.61 53.2033 121.526 53.7097 121.235C53.9826 121.083 54.2359 120.892 54.463 120.665C54.6595 120.473 54.841 120.263 55.0057 120.037C55.1472 119.87 55.2484 119.667 55.3001 119.445C55.3544 119.11 55.2047 118.78 55.0304 118.503C54.93 118.344 54.8201 118.192 54.7014 118.049C53.6044 116.699 51.8068 115.999 50.2607 115.725C49.6456 115.615 49.0618 115.358 48.4697 115.149C47.8776 114.941 47.2509 114.783 46.6358 114.88C46.0207 114.977 45.4155 115.371 45.1803 116.012Z" fill="#3F3D56"/>
<path opacity="0.1" d="M45.1803 116.012C45.1087 116.184 45.0874 116.376 45.1194 116.562C45.1951 116.928 45.5322 117.139 45.8365 117.305L48.7295 118.881C48.9302 118.984 49.1257 119.1 49.315 119.227C49.8084 119.564 50.1966 120.04 50.6176 120.476C51.0387 120.912 51.5074 121.321 52.065 121.475C52.6216 121.61 53.2033 121.526 53.7097 121.235C53.9826 121.083 54.2359 120.892 54.463 120.665C54.6595 120.473 54.841 120.263 55.0057 120.037C55.1472 119.87 55.2484 119.667 55.3001 119.445C55.3544 119.11 55.2047 118.78 55.0304 118.503C54.93 118.344 54.8201 118.192 54.7014 118.049C53.6044 116.699 51.8068 115.999 50.2607 115.725C49.6456 115.615 49.0618 115.358 48.4697 115.149C47.8776 114.941 47.2509 114.783 46.6358 114.88C46.0207 114.977 45.4155 115.371 45.1803 116.012Z" fill="black"/>
<path d="M52.4203 117.018C52.6427 117.296 52.8257 117.611 52.963 117.95C53.0865 118.173 53.1306 118.439 53.0864 118.696C53.0217 118.869 52.918 119.02 52.7854 119.135L52.4976 119.432C52.4106 119.533 52.3095 119.617 52.1982 119.681C52.0408 119.747 51.8726 119.775 51.7048 119.764C51.3183 119.764 50.9022 119.764 50.5881 119.505C50.1588 119.161 50.0815 118.448 50.2772 117.901C50.4729 117.353 50.8825 116.939 51.2953 116.569C51.6308 116.267 52.1851 116.741 52.4203 117.018Z" fill="#FBBEBE"/>
<path d="M54.1768 118.912C54.1235 119.216 54.1492 119.53 54.2508 119.819C54.3232 120.093 54.3939 120.368 54.4646 120.648C54.4646 120.648 54.4646 120.648 54.4646 120.659C54.6611 120.467 54.8427 120.257 55.0074 120.031C55.1488 119.865 55.2501 119.661 55.3018 119.44C55.356 119.104 55.2064 118.775 55.032 118.498C54.9316 118.339 54.8217 118.187 54.7031 118.044C54.6258 118.155 54.5583 118.265 54.5024 118.337C54.3585 118.501 54.2475 118.697 54.1768 118.912Z" fill="#FBBEBE"/>
<path d="M46.6194 105.26C46.279 106.853 46.4237 108.52 46.6046 110.147C46.7428 111.385 46.8974 112.667 46.5684 113.86C46.4467 114.305 46.2543 114.757 46.3283 115.217C46.4681 116.084 47.4056 116.417 48.1819 116.58C48.4058 116.644 48.6386 116.659 48.8677 116.626C49.0976 116.556 49.3109 116.431 49.4927 116.26C50.5962 115.366 51.4342 114.125 51.8989 112.697C52.1933 111.741 52.287 110.724 52.3775 109.718C52.5288 108.026 52.6818 106.313 52.4597 104.631C52.394 104.137 52.2953 103.648 52.2542 103.15C52.2024 102.283 52.2455 101.413 52.3824 100.558C52.6656 98.4395 53.0945 96.3488 53.6653 94.3039C52.0992 94.5355 50.5072 94.2153 49.1128 93.3881C49.3825 93.5493 49.0733 96.1192 49.0404 96.4801C48.9406 97.5559 48.7663 98.6215 48.519 99.6674C48.0602 101.622 47.0355 103.318 46.6194 105.26Z" fill="#3F3D56"/>
<path opacity="0.1" d="M46.6194 105.26C46.279 106.853 46.4237 108.52 46.6046 110.147C46.7428 111.385 46.8974 112.667 46.5684 113.86C46.4467 114.305 46.2543 114.757 46.3283 115.217C46.4681 116.084 47.4056 116.417 48.1819 116.58C48.4058 116.644 48.6386 116.659 48.8677 116.626C49.0976 116.556 49.3109 116.431 49.4927 116.26C50.5962 115.366 51.4342 114.125 51.8989 112.697C52.1933 111.741 52.287 110.724 52.3775 109.718C52.5288 108.026 52.6818 106.313 52.4597 104.631C52.394 104.137 52.2953 103.648 52.2542 103.15C52.2024 102.283 52.2455 101.413 52.3824 100.558C52.6656 98.4395 53.0945 96.3488 53.6653 94.3039C52.0992 94.5355 50.5072 94.2153 49.1128 93.3881C49.3825 93.5493 49.0733 96.1192 49.0404 96.4801C48.9406 97.5559 48.7663 98.6215 48.519 99.6674C48.0602 101.622 47.0355 103.318 46.6194 105.26Z" fill="black"/>
<path d="M55.1587 95.9214C55.8165 98.0444 55.6718 100.363 55.3873 102.587C55.1027 104.811 54.6834 107.035 54.8067 109.275C54.8544 110.154 54.9827 111.057 54.7524 111.898C54.6245 112.308 54.4551 112.701 54.2475 113.069L48.9993 123.176C48.8655 123.439 48.6751 123.66 48.4454 123.82C48.2157 123.979 47.9538 124.073 47.6835 124.092C47.1227 124.136 46.5717 123.931 46.0487 123.702C45.7011 123.574 45.3782 123.374 45.0964 123.114C44.9567 122.984 44.8472 122.819 44.7774 122.632C44.7075 122.445 44.6792 122.242 44.6951 122.041C44.9303 120.286 45.2839 118.489 45.5454 116.728C45.7233 115.534 46.1111 114.391 46.6868 113.363C47.0931 112.631 47.593 111.973 47.9434 111.211C48.9499 109.028 48.6012 106.364 47.8249 104.067C47.0486 101.77 45.8924 99.638 45.2757 97.2897C45.0928 96.6362 44.9883 95.9587 44.9648 95.2748C44.9572 94.5684 45.0747 93.8674 45.3107 93.2117C45.5466 92.5561 45.8963 91.9587 46.3398 91.4537C46.4692 91.2904 46.6323 91.1647 46.8151 91.0873C47.0288 91.0321 47.2513 91.0365 47.4631 91.1002C50.3857 91.7321 54.1932 92.7854 55.1587 95.9214Z" fill="#3F3D56"/>
<path d="M102.334 64.2263C102.429 65.0286 102.169 65.84 101.799 66.5343C100.4 69.1354 97.1726 70.2857 94.6776 69.0749C93.6496 68.5749 92.7796 67.7506 91.9276 66.9373C91.6415 66.6625 91.3438 66.3749 91.199 65.9866C90.9441 65.2997 91.2517 64.4809 91.7533 63.99C92.2549 63.499 92.9046 63.2572 93.551 63.0393C95.6841 62.2992 101.825 59.9656 102.334 64.2263Z" fill="#FBBEBE"/>
<path d="M101.085 61.6801C103.028 63.4203 105.855 65.0781 108.056 66.3676C108.804 66.8072 109.634 67.3018 109.904 68.1994C110.049 68.6793 110.001 69.2014 109.954 69.7069C109.861 70.6796 109.766 71.6669 109.429 72.57C109.033 73.6269 108.332 74.4988 107.769 75.4587C106.783 77.1403 106.204 79.1222 104.985 80.6078C105.807 83.6504 106.707 86.6893 107 89.8472C107.016 89.9341 107.007 90.0244 106.975 90.1055C106.941 90.1589 106.898 90.2033 106.847 90.2356L104.801 91.7303C104.578 91.8753 104.378 92.0611 104.21 92.2798C103.848 92.8037 103.896 93.5401 103.672 94.1501C103.55 94.4478 103.374 94.7149 103.157 94.9352C102.939 95.1556 102.684 95.3246 102.406 95.4323C101.847 95.6469 101.251 95.7171 100.664 95.6375C99.917 95.5851 99.1974 95.3029 98.5854 94.8223C98.064 94.3827 97.6923 93.7654 97.3338 93.1573C97.0681 92.7425 96.8473 92.2943 96.6759 91.8219C96.4572 91.1478 96.444 90.4133 96.4522 89.6952C96.4577 88.3288 96.5749 86.9658 96.8025 85.6232C96.8979 85.0901 97.0163 84.5644 97.092 84.0277C97.2433 82.947 97.2137 81.8442 97.3256 80.758C97.4784 79.5362 97.7232 78.331 98.0574 77.1549C98.2403 76.4265 98.3832 75.6863 98.4851 74.9385C98.6775 73.6233 99.0607 72.3538 99.4439 71.0918L100.102 68.9284C100.242 68.4613 100.383 67.9961 100.549 67.5399C100.858 66.6882 101.256 65.8584 101.362 64.9498C101.478 63.9588 100.518 62.7828 100.842 61.8523C100.868 61.7497 101.011 61.6142 101.085 61.6801Z" fill="#3F3D56"/>
<path d="M109.378 67.6883C109.833 67.9173 110.085 68.4631 110.248 68.9907C110.615 70.1796 110.703 71.4533 110.505 72.6909C110.44 73.002 110.396 73.3179 110.373 73.6361C110.376 74.0049 110.409 74.3726 110.47 74.7351C110.634 76.1364 110.47 77.5597 110.524 78.9738C110.58 80.5638 110.891 82.2435 110.292 83.6888C109.894 84.6487 109.141 85.3631 108.398 86.0115C105.63 88.4139 102.576 90.3768 99.3238 91.8439C99.8847 91.0928 99.8946 89.9626 99.5212 89.0779C99.1479 88.1931 98.4538 87.5282 97.712 87.0116C98.6562 86.7779 99.5705 86.4143 100.434 85.9291C102.158 84.9546 103.635 83.5276 105.093 82.1153C105.309 81.943 105.476 81.7069 105.577 81.4339C105.725 80.8844 105.317 80.3623 105.034 79.8806C104.177 78.4151 104.376 76.5009 104.735 74.8047C105.135 72.9455 105.722 71.0936 106.792 69.5988C107.46 68.6646 108.332 67.9466 109.378 67.6883Z" fill="#3F3D56"/>
<path d="M99.1791 91.8896C99.0312 92.158 98.8393 92.3929 98.6133 92.5821C98.1199 92.9484 97.4423 92.8092 96.8913 92.5491C96.3793 92.3072 95.9068 91.9723 95.4933 91.5581C95.3155 91.3476 95.1056 91.1739 94.8732 91.0452C94.4423 90.862 93.8404 90.9994 93.5986 90.5579C93.5705 90.5116 93.5566 90.4563 93.5591 90.4004C93.5739 90.2411 93.7614 90.1971 93.9062 90.1879C94.5776 90.1385 95.2293 89.9145 95.8091 89.534C95.6239 89.3849 95.4655 89.1985 95.342 88.9845C95.2908 88.9097 95.263 88.8183 95.263 88.7243C95.2831 88.6222 95.3335 88.5306 95.4061 88.4642C95.9348 87.9086 96.6 87.5408 97.3171 87.4077C98.0341 87.2746 98.7705 87.3822 99.4324 87.7169C99.5616 87.7751 99.6749 87.8698 99.7613 87.9916C99.8222 88.104 99.863 88.2284 99.8814 88.358C99.9883 88.8709 100.375 89.6402 100.235 90.1586C100.08 90.7539 99.4965 91.3859 99.1791 91.8896Z" fill="#FBBEBE"/>
<path d="M87.9639 89.5798C90.0099 86.9476 90.9244 83.4837 91.773 80.1334L92.3799 77.7521L93.8437 72.0168C94.0591 71.1705 94.2746 70.3242 94.4177 69.4615C94.6628 67.9723 94.6858 66.4501 94.671 64.937C94.6501 64.3098 94.5211 63.6929 94.2911 63.1199C94.148 62.7242 94.0789 62.3029 93.9621 61.8944C93.8135 61.3249 93.5914 60.7826 93.3026 60.2843C93.2222 60.1362 93.1218 60.0027 93.0049 59.8887C92.8025 59.7355 92.5732 59.6318 92.3322 59.5846C91.8093 59.4114 91.2675 59.3196 90.7221 59.3116C90.176 59.3336 89.6135 59.5443 89.2616 60.0059C88.9935 60.3594 88.8701 60.8174 88.658 61.2149C88.5592 61.3776 88.4697 61.5471 88.3899 61.7223C88.2994 61.9884 88.2494 62.2694 88.2418 62.5539C88.1563 63.7079 88.0834 64.8631 88.0231 66.0196C87.9951 66.5453 87.9705 67.0747 87.9886 67.6022C88.0034 68.0126 88.0428 68.421 88.0823 68.8295L88.4721 72.8301C88.5626 73.7698 88.4984 74.6491 88.5741 75.5906C88.7583 77.8638 88.3191 80.137 87.8685 82.3681C87.653 83.4287 87.431 84.504 86.9705 85.4638C86.5642 86.3138 85.9557 87.1765 86.1169 88.1236C86.1728 88.4533 86.3225 88.761 86.3455 89.0944C86.3342 89.3008 86.3526 89.508 86.3998 89.708C86.4669 89.8441 86.5711 89.9529 86.6973 90.0187C86.8235 90.0846 86.9653 90.1041 87.1021 90.0744C87.4277 90.0107 87.7283 89.8382 87.9639 89.5798Z" fill="#3F3D56"/>
<path d="M88.2139 79.0452C88.2764 79.571 88.2287 80.104 88.2517 80.6334C88.3033 81.3152 88.4135 81.9899 88.5806 82.6483C88.7451 83.381 88.9556 84.2017 89.5362 84.6083C89.6818 84.6926 89.821 84.79 89.9523 84.8996C90.017 84.9564 90.0646 85.0338 90.0887 85.1216C90.1128 85.2093 90.1123 85.3031 90.0872 85.3905L89.6349 85.3062C89.6862 85.3499 89.7287 85.4052 89.7595 85.4684C89.7903 85.5317 89.8088 85.6014 89.8137 85.6732C89.8187 85.7449 89.81 85.817 89.7882 85.8847C89.7664 85.9524 89.732 86.0143 89.6872 86.0662C89.6425 86.1181 89.5884 86.1589 89.5286 86.1859C89.4687 86.2129 89.4044 86.2256 89.3398 86.223C89.2753 86.2204 89.2119 86.2027 89.1539 86.171C89.0959 86.1393 89.0446 86.0943 89.0033 86.0389C89.0205 86.204 89.0065 86.3712 88.9622 86.5299C88.9393 86.6077 88.8955 86.6758 88.8366 86.725C88.7778 86.7741 88.7068 86.8019 88.6333 86.8046C88.548 86.7899 88.4673 86.7521 88.3981 86.6947L87.2172 85.8796C86.8634 85.6674 86.5691 85.3505 86.3669 84.9637L85.8505 84.0973C85.7366 83.9303 85.6462 83.745 85.5824 83.5477C85.3899 82.815 85.9278 82.0017 85.6482 81.3111C85.5642 81.141 85.4656 80.9802 85.3537 80.8312C84.7567 79.9153 84.7946 78.6697 84.8603 77.534C84.8817 77.1512 84.9442 76.6969 85.2551 76.5302C85.5018 76.3965 85.7978 76.5156 86.0264 76.6823C86.255 76.849 86.4573 77.0688 86.7172 77.1677C86.8817 77.23 87.0626 77.2373 87.2271 77.3032C87.4573 77.393 87.6711 77.7429 87.8257 77.9499C88.0443 78.2675 88.1788 78.6469 88.2139 79.0452Z" fill="#FBBEBE"/>
<path d="M73.8014 62.5831C73.6617 62.9403 73.4656 63.2666 73.2224 63.5467C73.1003 63.6866 72.9503 63.7926 72.7846 63.8563C72.6189 63.9199 72.4422 63.9393 72.2685 63.913C71.9034 63.8324 71.6353 63.4972 71.3935 63.1803C70.762 62.3542 70.1222 61.5171 69.6978 60.5389C69.0498 59.0497 68.9462 57.3498 68.8525 55.6994C68.8294 55.2744 68.8097 54.8238 68.9923 54.4519C69.2242 53.9775 69.7159 53.754 70.1699 53.5653L72.678 52.5212C72.8318 52.4402 73.0019 52.4054 73.1715 52.4205C73.5645 52.4938 73.7093 53.0213 73.8162 53.4481C74.0075 54.2151 74.3254 54.9356 74.7537 55.573C75.3161 56.4082 76.5776 57.533 75.8572 58.5752C74.9872 59.8245 74.4346 61.1727 73.8014 62.5831Z" fill="#BE6F72"/>
<path d="M77.0102 57.8169C78.1088 58.9672 78.4805 60.7587 78.4279 62.4348C78.3753 64.1109 77.9575 65.7448 77.719 67.4007C77.4805 69.0566 77.4328 70.8243 78.0792 72.3465C78.3013 72.8686 78.6039 73.3521 78.7585 73.9035C78.8881 74.4485 78.9321 75.0143 78.8884 75.5759C78.8857 76.168 78.7842 76.7544 78.5891 77.3051C78.2387 78.1697 77.5184 78.7705 76.8292 79.3201C75.423 80.4521 73.9888 81.6024 72.3376 82.1941C71.2192 82.5953 70.035 82.7271 68.864 82.7986C68.0711 82.869 67.2737 82.8438 66.4857 82.7235C65.1073 82.4676 63.8405 81.7208 62.8756 80.595C62.7075 80.4135 62.5689 80.2009 62.4661 79.9667C62.3656 79.6618 62.3171 79.3388 62.323 79.0142C62.2835 77.8113 62.2901 76.6084 62.3427 75.4056C62.3729 74.2592 62.5146 73.1199 62.7654 72.0076C63.0795 70.7254 63.6239 69.5237 64.0368 68.2745C65.4742 63.9313 65.3295 58.9892 67.3262 54.9337C67.7571 54.0581 68.4775 53.1367 69.3656 53.2759C69.5364 53.2874 69.6972 53.3697 69.8162 53.5067C69.9183 53.6735 69.9754 53.8692 69.9807 54.0709C70.1929 56.0419 70.4939 58.0642 71.3277 59.8428C71.6567 60.5407 72.1501 61.6032 72.9083 61.79C73.6665 61.9768 74.1138 61.1709 74.5201 60.5994C75.2339 59.5513 76.0715 58.6154 77.0102 57.8169Z" fill="#E3E8F4"/>
<path d="M82.2683 54.8513C82.4924 54.9862 82.7016 55.1497 82.8917 55.3385C83.3851 55.8588 83.566 56.6556 83.5627 57.4103C83.5594 58.165 83.3982 58.9086 83.2995 59.656C83.0347 61.671 83.2601 63.7335 83.3653 65.7741C83.3974 66.1036 83.3796 66.4367 83.3127 66.7596C83.2321 67.0674 83.066 67.3385 82.9591 67.637C82.6449 68.5199 82.8818 69.5274 82.6976 70.4543C82.5002 71.4416 81.8242 72.3392 81.9509 73.3412C82.0019 73.7332 82.1713 74.094 82.2436 74.4824C82.316 74.8707 82.2535 75.3396 81.9525 75.5484C81.6515 75.7573 81.2141 75.6052 80.8555 75.7206C80.7099 75.7805 80.5681 75.8515 80.4312 75.9331C79.8769 76.2115 79.2158 76.1163 78.6697 75.8122C78.1345 75.4869 77.6534 75.0619 77.247 74.5556C76.6204 73.8412 76.0135 73.0591 75.7388 72.1084C75.3375 70.7309 75.6944 69.2307 76.1303 67.8642C76.5661 66.4977 77.0859 65.1165 77.0086 63.6639C76.9658 62.8506 76.7355 62.0685 76.5974 61.2698C76.4264 60.1633 76.3651 59.0391 76.4148 57.9177C76.4362 57.097 76.4855 56.2508 76.803 55.5089C77.0293 55.014 77.3635 54.5903 77.775 54.2767C78.1865 53.9631 78.6621 53.7695 79.1582 53.7137C80.3095 53.5745 81.2963 54.2285 82.2683 54.8513Z" fill="#3F3D56"/>
<path opacity="0.1" d="M79.1581 72.5572C79.1697 73.1433 79.2641 73.7237 79.4377 74.2772C79.7321 73.5298 79.7667 72.6909 79.8061 71.8776C79.9706 69.0768 80.5282 66.4354 81.1219 63.7225C80.6893 64.0889 80.4459 65.0048 80.2387 65.5543C79.4163 67.7703 79.0472 70.1625 79.1581 72.5572Z" fill="black"/>
<path d="M68.0712 53.0415C67.2784 53.2741 66.591 53.798 65.8229 54.1405C65.0252 54.5069 64.1667 54.6626 63.3295 54.8879C61.3921 55.4118 59.4464 56.3845 58.277 58.1851C57.4152 59.5095 57.0583 61.1452 56.4678 62.6455C55.9744 63.9039 55.3165 65.0835 54.9531 66.3933C54.4777 68.1023 54.532 69.9341 54.6488 71.7182C54.7442 73.1836 54.8889 74.6655 55.4859 75.9643C55.7984 76.6457 56.2293 77.2557 56.5418 77.9371C56.9168 78.7559 57.1142 79.6589 57.4267 80.5016C57.7392 81.3442 58.1981 82.1868 58.9234 82.6264L60.124 81.8442C61.9151 80.6774 63.7062 79.5087 65.4413 78.2412C66.9544 77.1421 68.4807 75.88 69.2866 74.0739C70.0004 72.4784 70.0711 70.6137 69.8869 68.8423C69.7027 67.071 69.2817 65.3382 69.0646 63.5723C68.788 61.3498 68.8297 59.0925 69.1879 56.8845C69.3524 55.8881 69.7899 54.8586 69.8804 53.8658C69.9807 52.8052 68.757 52.84 68.0712 53.0415Z" fill="#3F3D56"/>
<path d="M60.6487 82.1611C61.5681 83.1301 62.8904 83.4122 64.0401 83.9929C64.8942 84.4346 65.6634 85.0567 66.3048 85.8247C66.6584 86.257 67.0005 86.845 66.8229 87.3945C66.6732 87.8671 66.2143 88.1089 65.7933 88.2847C65.2703 88.5046 64.6864 88.6987 64.1651 88.4771C63.8591 88.347 63.6124 88.0869 63.3312 87.9019C62.6421 87.4458 61.7737 87.444 61.0664 87.0227C60.0698 86.4292 59.5731 85.1231 58.6356 84.4179C58.1224 84.0332 57.4136 83.7181 57.3609 83.0312C57.3585 82.7828 57.4057 82.5369 57.4991 82.3113C57.6882 81.7508 58.0106 79.8256 58.731 79.8769C59.5155 79.9337 60.0648 81.6977 60.6487 82.1611Z" fill="#FBBEBE"/>
<path d="M55.8314 73.5756C56.1323 74.7809 56.8313 75.8086 57.5566 76.7647C58.078 77.4517 58.6504 78.199 58.6685 79.0984C58.6849 79.9484 58.1751 80.7305 57.5172 81.1647C56.8593 81.5988 56.0846 81.738 55.3231 81.793C54.714 81.8583 54.0993 81.8106 53.5041 81.6519C52.0008 81.1976 50.9581 79.7377 49.7756 78.6093C49.0733 77.9407 48.2838 77.3582 47.746 76.5211C47.2082 75.684 46.9812 74.4824 47.5108 73.6379C47.7019 73.3642 47.9229 73.118 48.1687 72.9052C49.0669 72.0379 49.8328 71.014 50.4367 69.8736C50.6802 69.4139 50.9137 68.9156 51.3232 68.639C51.9104 68.2415 52.6637 68.4229 53.3281 68.617C54.0501 68.8277 56.0846 69.2398 56.2261 70.2656C56.2836 70.6869 55.8149 71.3427 55.7442 71.7952C55.6542 72.3885 55.684 72.9967 55.8314 73.5756Z" fill="#FBBEBE"/>
<path d="M59.55 75.8727C59.7655 76.3076 59.9429 76.7646 60.0796 77.2373C60.5813 79.179 59.6849 81.1793 59.2573 83.143C58.7113 85.658 58.9432 88.2884 58.9168 90.8767C58.9053 92.06 58.7918 93.3624 58.0271 94.183C57.8297 94.3919 57.5929 94.5677 57.4596 94.8315C57.3773 95.0248 57.316 95.2283 57.2771 95.4378C57.1603 95.8904 56.9532 96.3078 56.6712 96.6587C56.3893 97.0096 56.0397 97.285 55.6488 97.4643C55.2578 97.6436 54.8355 97.7222 54.4134 97.6942C53.9914 97.6662 53.5804 97.5323 53.2114 97.3025C52.588 96.916 52.0469 96.2456 51.3331 96.2255C51.1087 96.2375 50.8851 96.2651 50.6637 96.3079C49.9532 96.3867 49.2575 96.0936 48.5914 95.806C48.4324 95.7501 48.2841 95.6619 48.1539 95.5459C48.0338 95.4232 47.9565 95.2583 47.8463 95.1264C47.4401 94.6392 46.746 94.7234 46.1605 94.5879C45.7237 94.479 45.3236 94.234 45.0071 93.8814C44.6905 93.5289 44.4705 93.0833 44.3727 92.5967C44.2543 91.9666 44.3546 91.3145 44.4533 90.6789L44.8941 87.8469C45.0791 86.8082 45.2071 85.7579 45.2773 84.7018C45.3314 83.5083 45.2395 82.3122 45.0043 81.1463C44.8102 80.1938 44.5208 79.2614 44.4155 78.2906C44.2321 76.5507 44.6431 74.7976 45.5668 73.3796C45.7954 73.0298 46.0947 72.6799 46.4829 72.6469C46.797 72.6158 47.0914 72.8026 47.3645 72.9821C49.7361 74.5452 52.1242 76.076 54.5288 77.5744C55.1867 77.9865 55.8593 78.4005 56.5929 78.6038C56.8133 78.6661 57.129 78.6405 57.1603 78.3913C57.1642 78.2964 57.1418 78.2024 57.0962 78.1221C56.685 77.241 56.0896 76.4845 55.6159 75.6455C55.1422 74.8066 54.7771 73.8137 54.9169 72.8392C55.1077 71.4911 56.2327 70.599 57.1521 71.6559C58.1833 72.8557 58.8741 74.3981 59.55 75.8727Z" fill="#F86D70"/>
<path d="M52.185 92.9686C54.1143 93.106 56.0863 93.2525 57.8724 94.0768C58.4464 94.3406 59.055 94.6813 59.6586 94.5183C59.959 94.4164 60.2384 94.2496 60.4809 94.0273C61.2245 93.4201 61.9271 92.7527 62.5828 92.0307C62.5171 91.6296 62.0286 91.5746 61.6635 91.5783C60.7732 91.5842 59.8949 91.3491 59.1043 90.8932C58.8444 90.7191 58.5688 90.5761 58.282 90.4664C57.5007 90.2264 56.7047 90.6844 55.9202 90.9078C54.759 91.2376 53.5353 91.0452 52.3495 90.8511L49.1489 90.3253C48.8512 90.2777 48.5157 90.2392 48.2789 90.4444C48.1206 90.611 48.012 90.8278 47.968 91.0654C47.5766 92.5308 47.7641 92.6535 49.0667 92.7451L52.185 92.9686Z" fill="#FBBEBE"/>
<path opacity="0.1" d="M95.888 67.5363C98.7947 67.5363 101.151 64.9119 101.151 61.6746C101.151 58.4373 98.7947 55.8129 95.888 55.8129C92.9813 55.8129 90.625 58.4373 90.625 61.6746C90.625 64.9119 92.9813 67.5363 95.888 67.5363Z" fill="black"/>
<path d="M95.8502 67.2817C98.7569 67.2817 101.113 64.6573 101.113 61.42C101.113 58.1827 98.7569 55.5583 95.8502 55.5583C92.9435 55.5583 90.5872 58.1827 90.5872 61.42C90.5872 64.6573 92.9435 67.2817 95.8502 67.2817Z" fill="#FBBEBE"/>
<path d="M100.293 53.9775C100.714 54.2669 101.154 54.5783 101.385 55.0656C101.508 55.3964 101.603 55.74 101.666 56.0914C101.954 57.1905 102.72 58.1448 102.766 59.2897C102.817 60.5444 101.972 61.6343 101.015 62.2919C100.796 62.4713 100.533 62.5699 100.261 62.574C99.9833 62.5539 99.7432 62.3597 99.4883 62.2351C98.4077 61.7003 97.1989 62.378 96.0541 62.6894C94.8646 63.0094 93.6165 62.9278 92.4687 62.455C91.8519 62.1985 91.2533 61.8138 90.8668 61.2185C90.4803 60.6232 90.3421 59.7897 90.671 59.1504C90.8355 58.8244 91.1085 58.5295 91.0904 58.1576C91.0806 57.9341 90.9621 57.7327 90.926 57.5128C90.8733 57.163 91.0378 56.8223 91.2056 56.5237C91.9668 55.1595 92.9286 53.9476 94.0509 52.9389C94.3798 52.6385 94.7598 52.3454 95.1907 52.3234C96.0558 52.2813 96.7992 52.9994 97.689 53.003C98.6988 53.0067 99.4241 53.3804 100.293 53.9775Z" fill="#3F3D56"/>
<path opacity="0.1" d="M76.4757 60.1817C79.4732 60.1817 81.9032 57.4754 81.9032 54.1369C81.9032 50.7984 79.4732 48.092 76.4757 48.092C73.4781 48.092 71.0482 50.7984 71.0482 54.1369C71.0482 57.4754 73.4781 60.1817 76.4757 60.1817Z" fill="black"/>
<path d="M76.571 60.0333C79.5685 60.0333 81.9985 57.327 81.9985 53.9885C81.9985 50.65 79.5685 47.9437 76.571 47.9437C73.5735 47.9437 71.1435 50.65 71.1435 53.9885C71.1435 57.327 73.5735 60.0333 76.571 60.0333Z" fill="#BE6F72"/>
<path d="M79.4706 57.4029C80.2371 57.881 81.1828 57.8316 82.038 57.6136C82.5231 57.5121 82.9829 57.2959 83.3867 56.9798C83.5872 56.8202 83.7525 56.612 83.8702 56.3708C83.9879 56.1296 84.0548 55.8618 84.0659 55.5876C84.0659 54.974 83.7041 54.4208 83.6597 53.8072C83.6054 53.0341 84.0577 52.3198 84.1054 51.5431C84.1531 50.7664 83.8094 50.0667 83.4738 49.3999C82.8965 48.2551 82.2962 47.0955 81.418 46.22C80.5397 45.3444 79.3226 44.7857 78.1713 45.0806C77.6055 45.2253 77.0809 45.5642 76.5036 45.6301C75.9904 45.6833 75.4839 45.5111 74.9724 45.4378C74.4609 45.3645 73.8869 45.4103 73.5201 45.8041C73.3194 46.024 73.1912 46.3335 72.956 46.4947C72.7965 46.5767 72.6315 46.6446 72.4626 46.6981C71.8688 46.9637 71.5974 47.7092 71.3869 48.3796L69.9758 52.8839C70.4478 53.2503 71.0169 53.417 71.5333 53.6991C72.0497 53.9812 72.5514 54.4318 72.6566 55.0619C72.7372 55.54 72.5843 56.0895 72.8343 56.4889C73.0629 56.8552 73.5283 56.9175 73.9231 56.8552C74.3178 56.7929 74.7142 56.6409 75.1089 56.7087C76.0957 56.8754 76.4625 57.5495 77.3753 56.7087C78.2881 55.8679 78.622 56.8717 79.4706 57.4029Z" fill="#3F3D56"/>
<path opacity="0.1" d="M53.5058 73.1159C56.2308 73.1159 58.4399 70.6555 58.4399 67.6206C58.4399 64.5856 56.2308 62.1252 53.5058 62.1252C50.7807 62.1252 48.5717 64.5856 48.5717 67.6206C48.5717 70.6555 50.7807 73.1159 53.5058 73.1159Z" fill="black"/>
<path d="M53.6966 72.8173C56.4216 72.8173 58.6307 70.3569 58.6307 67.322C58.6307 64.287 56.4216 61.8267 53.6966 61.8267C50.9715 61.8267 48.7625 64.287 48.7625 67.322C48.7625 70.3569 50.9715 72.8173 53.6966 72.8173Z" fill="#FBBEBE"/>
<path d="M57.4744 61.9494C56.2997 60.9456 54.9798 60.1725 53.5715 59.6633C52.6702 59.3373 51.69 59.1138 50.7756 59.4142C49.5355 59.8081 47.876 60.396 47.1079 61.5519C46.7296 62.1197 46.3464 62.7041 46.1638 63.3837C45.7987 64.7502 46.3184 66.2064 46.2839 67.6315C46.2428 69.293 45.4517 70.8097 44.5882 72.1652C43.7247 73.5207 43.5504 75.4624 43.0405 77.0267C42.8662 77.5634 42.8103 78.3089 43.2593 78.5782C43.654 78.8218 44.131 78.5178 44.4961 78.2247L46.6918 76.457C46.8624 76.3008 47.0592 76.1837 47.2707 76.1126C47.723 75.9954 48.1654 76.3105 48.5437 76.609L53.1489 80.236C53.2399 80.029 53.289 79.8023 53.2927 79.5718C53.2964 79.3414 53.2546 79.1129 53.1702 78.9024C53.6028 79.0508 53.9169 79.452 54.2969 79.7377C54.6768 80.0235 55.2541 80.1169 55.5304 79.7176C55.8067 79.3182 55.5978 78.7815 55.2903 78.4591C54.9827 78.1367 54.5781 77.9444 54.2771 77.6129C53.6801 76.9516 53.6192 75.9075 53.2426 75.0722C52.9729 74.486 52.537 73.9951 52.3462 73.3705C52.0354 72.3502 52.4416 71.2511 52.8397 70.2693C53.315 69.1043 53.8528 67.8605 54.8643 67.2524C55.2047 67.0472 55.5814 66.9263 55.93 66.7395C56.7984 66.276 57.8823 65.1825 58.3066 64.2025C58.6783 63.3324 58.106 62.4916 57.4744 61.9494Z" fill="#3F3D56"/>
<path opacity="0.1" d="M50.0058 80.1096C50.4778 80.4448 51.0107 80.6591 51.4745 81.009C51.9383 81.3588 52.3446 81.89 52.3577 82.5129C52.3709 83.1082 52.0288 83.6302 51.6998 84.1028L47.6933 89.959L49.7361 90.5616C49.4071 91.0672 49.3232 91.712 49.1522 92.3055C48.9811 92.899 48.6588 93.5163 48.1127 93.672C47.6193 93.813 47.1029 93.5236 46.593 93.5566C46.2164 93.5822 45.8612 93.7801 45.4845 93.7966C44.9993 93.8167 44.5487 93.5328 44.1441 93.2324C43.2428 92.5601 42.3481 91.5966 42.3547 90.3876C42.376 89.9787 42.4497 89.5753 42.5734 89.1896C43.1638 87.0446 43.7757 84.8484 44.9993 83.0642C45.6572 82.1117 46.4615 81.3075 47.2657 80.5089C47.4486 80.3038 47.6638 80.138 47.9006 80.0198C48.4269 79.8 49.0009 80.0711 49.5453 80.2469C50.0897 80.4228 50.7755 80.4484 51.0897 79.9301" fill="black"/>
<path d="M49.8332 79.7487C50.3052 80.0821 50.8381 80.2982 51.3019 80.6481C51.7657 80.9979 52.1719 81.5291 52.1867 82.1501C52.2015 82.7711 51.8578 83.2693 51.5288 83.7419L47.5207 89.5926L49.5634 90.1953C49.2345 90.7008 49.1506 91.3438 48.9796 91.9391C48.8085 92.5344 48.4861 93.1499 47.9401 93.3056C47.4467 93.4466 46.9303 93.1572 46.4204 93.1902C46.0438 93.214 45.6885 93.4137 45.3119 93.4283C44.8267 93.4485 44.376 93.1646 43.9714 92.8641C43.0701 92.1937 42.1754 91.2284 42.1837 90.0212C42.2034 89.6123 42.2765 89.2087 42.4008 88.8233C42.9912 86.6764 43.603 84.4801 44.8267 82.6978C45.4846 81.7435 46.2905 80.9393 47.0931 80.1333C47.2768 79.9294 47.4918 79.7638 47.7279 79.6443C48.2542 79.4244 48.8282 79.6955 49.3726 79.8732C49.917 80.0509 50.6029 80.0747 50.917 79.5563" fill="#F86D70"/>
<g opacity="0.1">
<path opacity="0.1" d="M91.0378 60.004C91.4243 60.5993 92.0246 60.9858 92.6397 61.2405C93.7871 61.7151 95.0358 61.7968 96.2252 61.4749C97.3765 61.1635 98.5788 60.4858 99.6593 61.0206C99.9143 61.147 100.153 61.3394 100.431 61.3614C100.703 61.3559 100.966 61.2567 101.186 61.0774C101.852 60.6195 102.464 59.9527 102.756 59.1669C102.756 59.2072 102.756 59.2475 102.766 59.2896C102.817 60.5444 101.972 61.6343 101.015 62.2919C100.796 62.4712 100.533 62.5699 100.261 62.574C99.9833 62.5538 99.7432 62.3597 99.4883 62.2351C98.4077 61.7002 97.1989 62.378 96.0541 62.6894C94.8646 63.0093 93.6165 62.9277 92.4687 62.4549C91.8519 62.1985 91.2533 61.8138 90.8668 61.2185C90.4803 60.6232 90.3421 59.7897 90.671 59.1504L90.6957 59.1046C90.749 59.4288 90.8658 59.7359 91.0378 60.004Z" fill="black"/>
<path opacity="0.1" d="M91.2566 56.9431C91.2697 57.2252 91.1168 57.4615 90.9704 57.7015C90.95 57.642 90.9341 57.5807 90.9227 57.5183C90.8734 57.1904 91.0148 56.8717 91.171 56.5841C91.2159 56.6982 91.2447 56.8193 91.2566 56.9431Z" fill="black"/>
</g>
<path opacity="0.1" d="M71.7718 47.7825L70.3606 52.285C70.8327 52.6513 71.4017 52.8198 71.9182 53.1001C72.4346 53.3804 72.9362 53.8328 73.0415 54.4629C73.1221 54.941 72.9691 55.4906 73.2191 55.8917C73.4477 56.2581 73.9132 56.3185 74.3079 56.2581C74.7026 56.1976 75.099 56.0438 75.4937 56.1115C76.4806 56.2782 76.8473 56.9523 77.7601 56.1207C78.6729 55.2891 79.0035 56.2764 79.8522 56.8076C80.6186 57.2875 81.5643 57.2381 82.4196 57.0183C82.9045 56.9173 83.3644 56.7018 83.7682 56.3863C83.8257 56.334 83.8806 56.2784 83.9327 56.2196C83.8068 56.5198 83.6171 56.7814 83.3801 56.9816C82.9763 57.2978 82.5165 57.5139 82.0314 57.6154C81.1762 57.8334 80.2223 57.8829 79.464 57.4048C78.6154 56.8735 78.2667 55.9045 77.372 56.7178C76.4773 57.5312 76.0891 56.8754 75.1056 56.7178C74.7109 56.6501 74.3161 56.8021 73.9198 56.8644C73.5234 56.9267 73.0596 56.8644 72.831 56.498C72.581 56.0987 72.7339 55.5492 72.6533 55.0711C72.5481 54.441 72.0464 53.9885 71.53 53.7083C71.0136 53.428 70.4445 53.2576 69.9725 52.8931L71.3902 48.3778C71.5547 47.8814 71.7356 47.3447 72.0645 46.9911C71.9506 47.247 71.8527 47.5114 71.7718 47.7825Z" fill="black"/>
<g opacity="0.1">
<path opacity="0.1" d="M53.537 79.1002C53.9004 79.2834 54.3593 79.3109 54.5896 78.9683C54.8478 78.602 54.657 78.0341 54.3494 77.7099C54.0419 77.3857 53.6373 77.1952 53.3363 76.8636C52.7393 76.2042 52.6784 75.1601 52.3018 74.3248C52.0321 73.7368 51.5962 73.2459 51.4054 72.6213C51.0946 71.6028 51.5008 70.5019 51.8988 69.5219C52.3742 68.3569 52.912 67.1131 53.9235 66.505C54.2639 66.2998 54.6406 66.1789 54.9892 65.9921C55.8576 65.5286 56.9415 64.4332 57.3658 63.4532C57.7227 62.6271 57.2195 61.8248 56.6208 61.2808C56.9119 61.4914 57.1964 61.7131 57.4727 61.9494C58.1059 62.4989 58.6767 63.3323 58.2951 64.1988C57.8708 65.1788 56.7869 66.2723 55.9185 66.7358C55.5698 66.919 55.1932 67.0435 54.8527 67.2487C53.8412 67.8568 53.3034 69.1006 52.8281 70.2656C52.4284 71.2474 52.0222 72.3465 52.3347 73.3668C52.5255 73.9914 52.9613 74.4823 53.231 75.0685C53.6126 75.9038 53.6685 76.9479 54.2656 77.6092C54.5665 77.9407 54.9711 78.1312 55.2787 78.4554C55.5863 78.7797 55.7721 79.3402 55.5188 79.7139C55.2655 80.0875 54.6636 80.0106 54.2853 79.734C54.0304 79.5417 53.7985 79.2889 53.537 79.1002Z" fill="black"/>
<path opacity="0.1" d="M43.5619 77.4754L45.7575 75.7096C45.9281 75.5528 46.1249 75.4352 46.3365 75.3634C46.7888 75.248 47.2312 75.5631 47.6095 75.8616L52.2146 79.4885C52.3057 79.2813 52.3548 79.0542 52.3585 78.8235C52.3622 78.5928 52.3204 78.364 52.236 78.1532C52.6587 78.2997 52.9663 78.6917 53.333 78.9665C53.2797 78.9396 53.2248 78.9169 53.1686 78.8987C53.2529 79.1092 53.2947 79.3377 53.291 79.5681C53.2873 79.7986 53.2382 80.0253 53.1472 80.2322L48.542 76.6053C48.1637 76.3068 47.7197 75.9917 47.269 76.1089C47.0575 76.18 46.8607 76.2971 46.6901 76.4533L44.4944 78.221C44.1293 78.514 43.6523 78.8181 43.2576 78.5745C43.1496 78.5006 43.061 78.3964 43.0007 78.2722C42.9403 78.1481 42.9104 78.0085 42.9138 77.8674C43.1468 77.775 43.3654 77.6428 43.5619 77.4754Z" fill="black"/>
</g>
<path d="M98.4176 89.4387C98.4176 89.4387 88.9935 90.2795 87.1185 88.7921L95.7401 87.3121L98.4176 89.4387Z" fill="#E3E8F4"/>
<path opacity="0.1" d="M98.4176 89.4387C98.4176 89.4387 88.9935 90.2795 87.1185 88.7921L95.7401 87.3121L98.4176 89.4387Z" fill="black"/>
<path d="M98.4176 89.4387L95.7779 87.5777C95.7779 87.5777 87.903 90.0982 85.7452 89.0577L87.9409 85.6268L95.7433 87.3212L98.4176 89.4387Z" fill="#E3E8F4"/>
<path d="M86.7073 64.7611C86.4163 65.1707 86.1828 65.6271 86.0149 66.1148C85.9393 66.3731 85.9014 66.6424 85.8373 66.9043C85.6568 67.5566 85.3788 68.1703 85.0149 68.7196C84.2041 70.033 83.191 71.3005 82.987 72.8777C82.8883 73.6562 82.9969 74.4475 83.135 75.2187C83.2098 75.7272 83.3402 76.2237 83.5232 76.6969C83.7321 77.1988 84.0429 77.6403 84.2814 78.1257C84.4992 78.6022 84.6829 79.0971 84.8307 79.6058C85.112 79.2926 85.2781 78.8731 85.5034 78.5067C85.7287 78.1404 86.0643 77.8107 86.4606 77.8052C86.9179 77.8052 87.2945 78.2265 87.7468 78.2924C87.8174 78.3083 87.8906 78.3006 87.9573 78.2704C88.1218 78.1843 88.1349 77.937 88.1218 77.7392C87.9918 76.3562 87.2813 74.9916 87.6168 73.6507C87.9261 72.4106 89.0313 71.6358 89.6119 70.5239C90.0329 69.7161 90.1579 68.7635 90.2698 67.8367C90.4096 66.7285 90.551 65.6111 90.4885 64.4955C90.4573 63.9332 90.0559 60.3795 89.3224 60.7514C89.0675 60.8796 88.8454 61.4236 88.6859 61.6673L88.028 62.7059L86.7073 64.7611Z" fill="#3F3D56"/>
<path d="M67.0219 87.6858L61.7309 92.4832L54.9235 91.1277L59.5072 87.1198L67.0219 87.6858Z" fill="#E3E8F4"/>
<path opacity="0.1" d="M67.2127 87.3872L61.9217 92.1846L55.1143 90.8291L59.698 86.8212L67.2127 87.3872Z" fill="black"/>
<path d="M67.1748 87.1325L61.8838 91.9281L55.0748 90.5745L59.6602 86.5647L67.1748 87.1325Z" fill="#E3E8F4"/>
<path opacity="0.1" d="M67.3278 86.5775L62.0351 91.3749L55.2277 90.0194L59.8132 86.0115L67.3278 86.5775Z" fill="black"/>
<path d="M67.2884 86.3229L61.9974 91.1203L55.1899 89.7648L59.7737 85.7569L67.2884 86.3229Z" fill="#E3E8F4"/>
<path d="M136.887 151.873C137.012 151.805 137.15 151.773 137.288 151.778C137.427 151.783 137.562 151.826 137.683 151.902C137.803 151.979 137.905 152.087 137.979 152.218C138.054 152.348 138.098 152.497 138.109 152.651L138.404 156.903L136.657 157.255L135.736 154.181L136.887 151.873Z" fill="#3F3D56"/>
<path d="M75.7783 123.376L49.047 138.484C48.7404 138.659 48.4832 138.924 48.3041 139.251C48.1249 139.579 48.0308 139.955 48.0321 140.338C48.0335 140.721 48.1303 141.097 48.3118 141.422C48.4933 141.748 48.7523 142.011 49.0601 142.183L106.633 174.361C107.657 174.933 108.792 175.215 109.937 175.183C111.082 175.151 112.203 174.806 113.2 174.178L137.45 158.949C137.744 158.762 137.987 158.489 138.152 158.16C138.317 157.83 138.398 157.457 138.387 157.08C138.376 156.703 138.272 156.337 138.087 156.02C137.903 155.704 137.644 155.45 137.339 155.285L77.4213 123.356C77.1644 123.219 76.8826 123.149 76.5977 123.153C76.3128 123.156 76.0325 123.233 75.7783 123.376Z" fill="#3F3D56"/>
<path d="M48.8677 135.856L48.0305 136.548L47.9647 139.864C47.9594 140.122 48.0196 140.377 48.1382 140.599C48.2569 140.822 48.4293 141.002 48.6358 141.12L107.192 174.587C107.325 174.663 107.473 174.7 107.623 174.694C107.772 174.688 107.918 174.64 108.045 174.553C108.173 174.466 108.279 174.345 108.352 174.199C108.425 174.054 108.463 173.891 108.463 173.724V168.908L48.8677 135.856Z" fill="#3F3D56"/>
<path d="M75.7783 119.533L49.047 134.639C48.7402 134.813 48.4827 135.078 48.3031 135.405C48.1235 135.732 48.0288 136.108 48.0297 136.491C48.0305 136.875 48.1268 137.25 48.3079 137.576C48.4889 137.902 48.7476 138.166 49.0552 138.338L106.633 170.517C107.657 171.087 108.792 171.369 109.937 171.337C111.082 171.305 112.203 170.961 113.2 170.333L137.45 155.102C137.744 154.915 137.987 154.642 138.152 154.313C138.317 153.984 138.398 153.61 138.387 153.233C138.376 152.856 138.272 152.49 138.087 152.174C137.903 151.857 137.644 151.603 137.339 151.439L77.4214 119.511C77.1643 119.374 76.8824 119.305 76.5975 119.309C76.3127 119.313 76.0324 119.389 75.7783 119.533Z" fill="#E3E8F4"/>
<path d="M81.3111 122.275L51.8578 138.931L102.48 167.122L132.854 149.951L81.3111 122.275Z" fill="#3F3D56"/>
<path d="M121.004 161.997C122.72 161.997 124.111 161.079 124.111 159.947C124.111 158.815 122.72 157.897 121.004 157.897C119.288 157.897 117.897 158.815 117.897 159.947C117.897 161.079 119.288 161.997 121.004 161.997Z" fill="#3F3D56"/>
<path d="M64.341 127.913C64.5 127.913 64.6289 127.77 64.6289 127.593C64.6289 127.416 64.5 127.272 64.341 127.272C64.1821 127.272 64.0532 127.416 64.0532 127.593C64.0532 127.77 64.1821 127.913 64.341 127.913Z" fill="#3F3D56"/>
<path d="M63.4792 130.476C63.67 130.476 63.8246 130.304 63.8246 130.091C63.8246 129.879 63.67 129.707 63.4792 129.707C63.2885 129.707 63.1339 129.879 63.1339 130.091C63.1339 130.304 63.2885 130.476 63.4792 130.476Z" fill="#3F3D56"/>
<path d="M64.744 129.45L68.1962 127.657" stroke="#3F3D56" stroke-miterlimit="10"/>
<path d="M95.3257 137.788L85.5803 144.054C84.1643 144.965 83.6792 146.981 84.4967 148.559C85.3142 150.136 87.1248 150.676 88.5408 149.765L98.2862 143.499C99.7022 142.588 100.187 140.572 99.3698 138.995C98.5523 137.418 96.7417 136.877 95.3257 137.788Z" fill="#6C63FF"/>
<path d="M104.043 142.734L94.2971 149.001C92.8811 149.911 92.396 151.928 93.2135 153.505C94.031 155.082 95.8416 155.622 97.2576 154.712L107.003 148.445C108.419 147.535 108.904 145.518 108.087 143.941C107.269 142.364 105.458 141.824 104.043 142.734Z" fill="#6C63FF"/>
<path d="M87.4313 132.11L77.6858 138.377C76.2699 139.287 75.7847 141.304 76.6022 142.881C77.4197 144.458 79.2303 144.998 80.6463 144.087L90.3917 137.821C91.8077 136.91 92.2928 134.894 91.4753 133.317C90.6578 131.74 88.8472 131.2 87.4313 132.11Z" fill="#6C63FF"/>
</g>
<path d="M12.5664 14.9375L18.1445 28.8594L23.7227 14.9375H26.6406V32H24.3906V25.3555L24.6016 18.1836L19 32H17.2773L11.6875 18.2188L11.9102 25.3555V32H9.66016V14.9375H12.5664ZM35.5352 32.2344C33.8164 32.2344 32.418 31.6719 31.3398 30.5469C30.2617 29.4141 29.7227 27.9023 29.7227 26.0117V25.6133C29.7227 24.3555 29.9609 23.2344 30.4375 22.25C30.9219 21.2578 31.5938 20.4844 32.4531 19.9297C33.3203 19.3672 34.2578 19.0859 35.2656 19.0859C36.9141 19.0859 38.1953 19.6289 39.1094 20.7148C40.0234 21.8008 40.4805 23.3555 40.4805 25.3789V26.2812H31.8906C31.9219 27.5312 32.2852 28.543 32.9805 29.3164C33.6836 30.082 34.5742 30.4648 35.6523 30.4648C36.418 30.4648 37.0664 30.3086 37.5977 29.9961C38.1289 29.6836 38.5938 29.2695 38.9922 28.7539L40.3164 29.7852C39.2539 31.418 37.6602 32.2344 35.5352 32.2344ZM35.2656 20.8672C34.3906 20.8672 33.6562 21.1875 33.0625 21.8281C32.4688 22.4609 32.1016 23.3516 31.9609 24.5H38.3125V24.3359C38.25 23.2344 37.9531 22.3828 37.4219 21.7812C36.8906 21.1719 36.1719 20.8672 35.2656 20.8672ZM48.2617 32.2344C46.543 32.2344 45.1445 31.6719 44.0664 30.5469C42.9883 29.4141 42.4492 27.9023 42.4492 26.0117V25.6133C42.4492 24.3555 42.6875 23.2344 43.1641 22.25C43.6484 21.2578 44.3203 20.4844 45.1797 19.9297C46.0469 19.3672 46.9844 19.0859 47.9922 19.0859C49.6406 19.0859 50.9219 19.6289 51.8359 20.7148C52.75 21.8008 53.207 23.3555 53.207 25.3789V26.2812H44.6172C44.6484 27.5312 45.0117 28.543 45.707 29.3164C46.4102 30.082 47.3008 30.4648 48.3789 30.4648C49.1445 30.4648 49.793 30.3086 50.3242 29.9961C50.8555 29.6836 51.3203 29.2695 51.7188 28.7539L53.043 29.7852C51.9805 31.418 50.3867 32.2344 48.2617 32.2344ZM47.9922 20.8672C47.1172 20.8672 46.3828 21.1875 45.7891 21.8281C45.1953 22.4609 44.8281 23.3516 44.6875 24.5H51.0391V24.3359C50.9766 23.2344 50.6797 22.3828 50.1484 21.7812C49.6172 21.1719 48.8984 20.8672 47.9922 20.8672ZM58.668 16.25V19.3203H61.0352V20.9961H58.668V28.8594C58.668 29.3672 58.7734 29.75 58.9844 30.0078C59.1953 30.2578 59.5547 30.3828 60.0625 30.3828C60.3125 30.3828 60.6562 30.3359 61.0938 30.2422V32C60.5234 32.1562 59.9688 32.2344 59.4297 32.2344C58.4609 32.2344 57.7305 31.9414 57.2383 31.3555C56.7461 30.7695 56.5 29.9375 56.5 28.8594V20.9961H54.1914V19.3203H56.5V16.25H58.668ZM72.4727 16.25V19.3203H74.8398V20.9961H72.4727V28.8594C72.4727 29.3672 72.5781 29.75 72.7891 30.0078C73 30.2578 73.3594 30.3828 73.8672 30.3828C74.1172 30.3828 74.4609 30.3359 74.8984 30.2422V32C74.3281 32.1562 73.7734 32.2344 73.2344 32.2344C72.2656 32.2344 71.5352 31.9414 71.043 31.3555C70.5508 30.7695 70.3047 29.9375 70.3047 28.8594V20.9961H67.9961V19.3203H70.3047V16.25H72.4727ZM79.5508 20.8555C80.5117 19.6758 81.7617 19.0859 83.3008 19.0859C85.9805 19.0859 87.332 20.5977 87.3555 23.6211V32H85.1875V23.6094C85.1797 22.6953 84.9688 22.0195 84.5547 21.582C84.1484 21.1445 83.5117 20.9258 82.6445 20.9258C81.9414 20.9258 81.3242 21.1133 80.793 21.4883C80.2617 21.8633 79.8477 22.3555 79.5508 22.9648V32H77.3828V14H79.5508V20.8555ZM95.8633 32.2344C94.1445 32.2344 92.7461 31.6719 91.668 30.5469C90.5898 29.4141 90.0508 27.9023 90.0508 26.0117V25.6133C90.0508 24.3555 90.2891 23.2344 90.7656 22.25C91.25 21.2578 91.9219 20.4844 92.7812 19.9297C93.6484 19.3672 94.5859 19.0859 95.5938 19.0859C97.2422 19.0859 98.5234 19.6289 99.4375 20.7148C100.352 21.8008 100.809 23.3555 100.809 25.3789V26.2812H92.2188C92.25 27.5312 92.6133 28.543 93.3086 29.3164C94.0117 30.082 94.9023 30.4648 95.9805 30.4648C96.7461 30.4648 97.3945 30.3086 97.9258 29.9961C98.457 29.6836 98.9219 29.2695 99.3203 28.7539L100.645 29.7852C99.582 31.418 97.9883 32.2344 95.8633 32.2344ZM95.5938 20.8672C94.7188 20.8672 93.9844 21.1875 93.3906 21.8281C92.7969 22.4609 92.4297 23.3516 92.2891 24.5H98.6406V24.3359C98.5781 23.2344 98.2812 22.3828 97.75 21.7812C97.2188 21.1719 96.5 20.8672 95.5938 20.8672ZM112.223 16.25V19.3203H114.59V20.9961H112.223V28.8594C112.223 29.3672 112.328 29.75 112.539 30.0078C112.75 30.2578 113.109 30.3828 113.617 30.3828C113.867 30.3828 114.211 30.3359 114.648 30.2422V32C114.078 32.1562 113.523 32.2344 112.984 32.2344C112.016 32.2344 111.285 31.9414 110.793 31.3555C110.301 30.7695 110.055 29.9375 110.055 28.8594V20.9961H107.746V19.3203H110.055V16.25H112.223ZM122.395 32.2344C120.676 32.2344 119.277 31.6719 118.199 30.5469C117.121 29.4141 116.582 27.9023 116.582 26.0117V25.6133C116.582 24.3555 116.82 23.2344 117.297 22.25C117.781 21.2578 118.453 20.4844 119.312 19.9297C120.18 19.3672 121.117 19.0859 122.125 19.0859C123.773 19.0859 125.055 19.6289 125.969 20.7148C126.883 21.8008 127.34 23.3555 127.34 25.3789V26.2812H118.75C118.781 27.5312 119.145 28.543 119.84 29.3164C120.543 30.082 121.434 30.4648 122.512 30.4648C123.277 30.4648 123.926 30.3086 124.457 29.9961C124.988 29.6836 125.453 29.2695 125.852 28.7539L127.176 29.7852C126.113 31.418 124.52 32.2344 122.395 32.2344ZM122.125 20.8672C121.25 20.8672 120.516 21.1875 119.922 21.8281C119.328 22.4609 118.961 23.3516 118.82 24.5H125.172V24.3359C125.109 23.2344 124.812 22.3828 124.281 21.7812C123.75 21.1719 123.031 20.8672 122.125 20.8672ZM137.688 32C137.562 31.75 137.461 31.3047 137.383 30.6641C136.375 31.7109 135.172 32.2344 133.773 32.2344C132.523 32.2344 131.496 31.8828 130.691 31.1797C129.895 30.4688 129.496 29.5703 129.496 28.4844C129.496 27.1641 129.996 26.1406 130.996 25.4141C132.004 24.6797 133.418 24.3125 135.238 24.3125H137.348V23.3164C137.348 22.5586 137.121 21.957 136.668 21.5117C136.215 21.0586 135.547 20.832 134.664 20.832C133.891 20.832 133.242 21.0273 132.719 21.418C132.195 21.8086 131.934 22.2812 131.934 22.8359H129.754C129.754 22.2031 129.977 21.5938 130.422 21.0078C130.875 20.4141 131.484 19.9453 132.25 19.6016C133.023 19.2578 133.871 19.0859 134.793 19.0859C136.254 19.0859 137.398 19.4531 138.227 20.1875C139.055 20.9141 139.484 21.918 139.516 23.1992V29.0352C139.516 30.1992 139.664 31.125 139.961 31.8125V32H137.688ZM134.09 30.3477C134.77 30.3477 135.414 30.1719 136.023 29.8203C136.633 29.4688 137.074 29.0117 137.348 28.4492V25.8477H135.648C132.992 25.8477 131.664 26.625 131.664 28.1797C131.664 28.8594 131.891 29.3906 132.344 29.7734C132.797 30.1562 133.379 30.3477 134.09 30.3477ZM144.953 19.3203L145.012 20.7266C145.941 19.6328 147.195 19.0859 148.773 19.0859C150.547 19.0859 151.754 19.7656 152.395 21.125C152.816 20.5156 153.363 20.0234 154.035 19.6484C154.715 19.2734 155.516 19.0859 156.438 19.0859C159.219 19.0859 160.633 20.5586 160.68 23.5039V32H158.512V23.6328C158.512 22.7266 158.305 22.0508 157.891 21.6055C157.477 21.1523 156.781 20.9258 155.805 20.9258C155 20.9258 154.332 21.168 153.801 21.6523C153.27 22.1289 152.961 22.7734 152.875 23.5859V32H150.695V23.6914C150.695 21.8477 149.793 20.9258 147.988 20.9258C146.566 20.9258 145.594 21.5312 145.07 22.7422V32H142.902V19.3203H144.953Z" fill="black"/>
<defs>
<clipPath id="clip0">
<rect width="152" height="150" fill="white" transform="translate(15 45)"/>
</clipPath>
</defs>
</svg>
