<svg width="200" height="93" viewBox="0 0 200 93" fill="none" xmlns="http://www.w3.org/2000/svg">
<g clip-path="url(#clip0)">
<path d="M18.6037 87.992L18.3362 87.8922C18.2774 87.8702 12.4273 85.639 9.68682 80.5801C6.94625 75.5208 8.28818 69.4295 8.30205 69.3687L8.36521 69.0913L8.63257 69.1911C8.69135 69.2132 14.5414 71.4443 17.2819 76.5033C20.0225 81.5625 18.6806 87.6538 18.6667 87.7146L18.6037 87.992ZM10.1257 80.3446C12.4426 84.622 17.0656 86.8146 18.2369 87.3151C18.4596 86.0654 19.158 81.012 16.8431 76.7388C14.5285 72.466 9.90368 70.27 8.73188 69.7682C8.50906 71.0186 7.81089 76.0715 10.1257 80.3446Z" fill="#3F3D56"/>
<path d="M11.7811 78.8054C16.7061 81.7549 18.6029 87.6133 18.6029 87.6133C18.6029 87.6133 12.5147 88.6897 7.58973 85.7403C2.66476 82.7908 0.768005 76.9324 0.768005 76.9324C0.768005 76.9324 6.85619 75.856 11.7811 78.8054Z" fill="#D0CDE1"/>
<path d="M169.396 2.01786H114.478V0.891113H89.5752V2.01786H34.4299C33.9421 2.01786 33.459 2.11351 33.0083 2.29934C32.5576 2.48518 32.1481 2.75756 31.8031 3.10094C31.4582 3.44431 31.1845 3.85196 30.9978 4.3006C30.8111 4.74925 30.7151 5.2301 30.7151 5.71571V80.5724C30.7151 81.5532 31.1064 82.4937 31.8031 83.1872C32.4998 83.8807 33.4447 84.2703 34.4299 84.2703H169.396C169.884 84.2703 170.367 84.1747 170.818 83.9888C171.269 83.803 171.678 83.5306 172.023 83.1872C172.368 82.8438 172.642 82.4362 172.829 81.9875C173.015 81.5389 173.111 81.058 173.111 80.5724V5.71571C173.111 5.2301 173.015 4.74925 172.829 4.3006C172.642 3.85196 172.368 3.44431 172.023 3.10093C171.678 2.75756 171.269 2.48517 170.818 2.29934C170.367 2.11351 169.884 2.01786 169.396 2.01786V2.01786Z" fill="#3F3D56"/>
<path d="M168.131 8.55298H35.6956V82.9182H168.131V8.55298Z" fill="#6C63FF"/>
<path d="M101.8 6.52484C102.55 6.52484 103.158 5.91948 103.158 5.17274C103.158 4.426 102.55 3.82065 101.8 3.82065C101.05 3.82065 100.442 4.426 100.442 5.17274C100.442 5.91948 101.05 6.52484 101.8 6.52484Z" fill="#6C63FF"/>
<path d="M160.528 18.0176H154.25V11.7685H160.528V18.0176ZM154.523 17.7459H160.255V12.0402H154.523V17.7459Z" fill="#3F3D56"/>
<path d="M176.83 81.5661H163.905V80.6391C163.905 80.615 163.9 80.5911 163.891 80.5688C163.882 80.5465 163.868 80.5263 163.851 80.5092C163.834 80.4921 163.813 80.4786 163.791 80.4693C163.769 80.4601 163.745 80.4554 163.72 80.4554H159.289C159.265 80.4554 159.241 80.4601 159.218 80.4693C159.196 80.4786 159.176 80.4921 159.158 80.5092C159.141 80.5263 159.128 80.5465 159.118 80.5688C159.109 80.5911 159.104 80.615 159.104 80.6391V81.5661H156.335V80.6391C156.335 80.615 156.33 80.5911 156.321 80.5688C156.311 80.5465 156.298 80.5263 156.281 80.5092C156.264 80.4921 156.243 80.4786 156.221 80.4693C156.198 80.4601 156.174 80.4554 156.15 80.4554H151.719C151.695 80.4554 151.671 80.4601 151.648 80.4693C151.626 80.4786 151.605 80.4921 151.588 80.5092C151.571 80.5263 151.557 80.5465 151.548 80.5688C151.539 80.5911 151.534 80.615 151.534 80.6391V81.5661H148.765V80.6391C148.765 80.615 148.76 80.5911 148.75 80.5688C148.741 80.5465 148.728 80.5263 148.71 80.5092C148.693 80.4921 148.673 80.4786 148.651 80.4693C148.628 80.4601 148.604 80.4554 148.58 80.4554H144.148C144.124 80.4554 144.1 80.4601 144.078 80.4693C144.055 80.4786 144.035 80.4921 144.018 80.5092C144.001 80.5263 143.987 80.5465 143.978 80.5688C143.969 80.5911 143.964 80.615 143.964 80.6391V81.5661H141.194V80.6391C141.194 80.615 141.189 80.5911 141.18 80.5688C141.171 80.5465 141.157 80.5263 141.14 80.5092C141.123 80.4921 141.103 80.4786 141.08 80.4693C141.058 80.4601 141.034 80.4554 141.01 80.4554H136.578C136.554 80.4554 136.53 80.4601 136.508 80.4693C136.485 80.4786 136.465 80.4921 136.448 80.5092C136.431 80.5263 136.417 80.5465 136.408 80.5688C136.398 80.5911 136.394 80.615 136.394 80.6391V81.5661H133.624V80.6391C133.624 80.615 133.619 80.5911 133.61 80.5688C133.601 80.5465 133.587 80.5263 133.57 80.5092C133.553 80.4921 133.532 80.4786 133.51 80.4693C133.488 80.4601 133.464 80.4554 133.439 80.4554H129.008C128.984 80.4554 128.96 80.4601 128.937 80.4693C128.915 80.4786 128.895 80.4921 128.877 80.5092C128.86 80.5263 128.847 80.5465 128.837 80.5688C128.828 80.5911 128.823 80.615 128.823 80.6391V81.5661H126.054V80.6391C126.054 80.615 126.049 80.5911 126.04 80.5688C126.03 80.5465 126.017 80.5263 126 80.5092C125.983 80.4921 125.962 80.4786 125.94 80.4693C125.917 80.4601 125.893 80.4554 125.869 80.4554H121.438C121.413 80.4554 121.389 80.4601 121.367 80.4693C121.345 80.4786 121.324 80.4921 121.307 80.5092C121.29 80.5263 121.276 80.5465 121.267 80.5688C121.258 80.5911 121.253 80.615 121.253 80.6391V81.5661H118.483V80.6391C118.483 80.615 118.479 80.5911 118.469 80.5688C118.46 80.5465 118.447 80.5263 118.429 80.5092C118.412 80.4921 118.392 80.4786 118.369 80.4693C118.347 80.4601 118.323 80.4554 118.299 80.4554H83.5865C83.5622 80.4554 83.5382 80.4601 83.5158 80.4693C83.4934 80.4786 83.473 80.4921 83.4559 80.5092C83.4387 80.5263 83.4251 80.5465 83.4159 80.5688C83.4066 80.5911 83.4018 80.615 83.4018 80.6391V81.5661H80.6322V80.6391C80.6322 80.615 80.6274 80.5911 80.6181 80.5688C80.6089 80.5465 80.5953 80.5263 80.5781 80.5092C80.561 80.4921 80.5406 80.4786 80.5182 80.4693C80.4958 80.4601 80.4718 80.4554 80.4475 80.4554H76.0162C75.9919 80.4554 75.9679 80.4601 75.9455 80.4693C75.9231 80.4786 75.9028 80.4921 75.8856 80.5092C75.8685 80.5263 75.8549 80.5465 75.8456 80.5688C75.8363 80.5911 75.8315 80.615 75.8315 80.6391V81.5661H73.0619V80.6391C73.0619 80.615 73.0572 80.5911 73.0479 80.5688C73.0386 80.5465 73.025 80.5263 73.0079 80.5092C72.9907 80.4921 72.9704 80.4786 72.948 80.4693C72.9256 80.4601 72.9015 80.4554 72.8773 80.4554H68.4459C68.4217 80.4554 68.3977 80.4601 68.3753 80.4693C68.3529 80.4786 68.3325 80.4921 68.3154 80.5092C68.2982 80.5263 68.2846 80.5465 68.2753 80.5688C68.2661 80.5911 68.2613 80.615 68.2613 80.6391V81.5661H65.4917V80.6391C65.4917 80.615 65.4869 80.5911 65.4776 80.5688C65.4683 80.5465 65.4547 80.5263 65.4376 80.5092C65.4205 80.4921 65.4001 80.4786 65.3777 80.4693C65.3553 80.4601 65.3313 80.4554 65.307 80.4554H60.8757C60.8514 80.4554 60.8274 80.4601 60.805 80.4693C60.7826 80.4786 60.7622 80.4921 60.7451 80.5092C60.728 80.5263 60.7144 80.5465 60.7051 80.5688C60.6958 80.5911 60.691 80.615 60.691 80.6391V81.5661H57.9214V80.6391C57.9214 80.615 57.9166 80.5911 57.9074 80.5688C57.8981 80.5465 57.8845 80.5263 57.8673 80.5092C57.8502 80.4921 57.8298 80.4786 57.8074 80.4693C57.785 80.4601 57.761 80.4554 57.7368 80.4554H53.3054C53.2812 80.4554 53.2571 80.4601 53.2347 80.4693C53.2123 80.4786 53.192 80.4921 53.1748 80.5092C53.1577 80.5263 53.1441 80.5465 53.1348 80.5688C53.1255 80.5911 53.1208 80.615 53.1208 80.6391V81.5661H50.3512V80.6391C50.3512 80.615 50.3464 80.5911 50.3371 80.5688C50.3278 80.5465 50.3142 80.5263 50.2971 80.5092C50.2799 80.4921 50.2596 80.4786 50.2372 80.4693C50.2148 80.4601 50.1908 80.4554 50.1665 80.4554H45.7351C45.7109 80.4554 45.6869 80.4601 45.6645 80.4693C45.6421 80.4786 45.6217 80.4921 45.6046 80.5092C45.5874 80.5263 45.5738 80.5465 45.5646 80.5688C45.5553 80.5911 45.5505 80.615 45.5505 80.6391V81.5661H42.7809V80.6391C42.7809 80.615 42.7761 80.5911 42.7668 80.5688C42.7576 80.5465 42.744 80.5263 42.7268 80.5092C42.7097 80.4921 42.6893 80.4786 42.6669 80.4693C42.6445 80.4601 42.6205 80.4554 42.5963 80.4554H38.1649C38.1406 80.4554 38.1166 80.4601 38.0942 80.4693C38.0718 80.4786 38.0515 80.4921 38.0343 80.5092C38.0172 80.5263 38.0036 80.5465 37.9943 80.5688C37.985 80.5911 37.9802 80.615 37.9802 80.6391V81.5661H29.4868C28.3115 81.5661 27.1844 82.0309 26.3533 82.8581C25.5223 83.6853 25.0554 84.8073 25.0554 85.9772V87.9718C25.0554 89.1417 25.5223 90.2636 26.3533 91.0909C27.1844 91.9181 28.3115 92.3828 29.4868 92.3828H176.83C178.005 92.3828 179.132 91.9181 179.963 91.0909C180.794 90.2636 181.261 89.1417 181.261 87.9718V85.9772C181.261 84.8073 180.794 83.6853 179.963 82.8581C179.132 82.0309 178.005 81.5661 176.83 81.5661V81.5661Z" fill="#3F3D56"/>
<path d="M199.488 87.8575H6.82867V88.4427H199.488V87.8575Z" fill="#3F3D56"/>
<path d="M159.944 49.9907H117.304V25.8265H159.944V49.9907ZM117.726 49.5704H159.522V26.2468H117.726V49.5704Z" fill="#3F3D56"/>
<path d="M81.8413 54.8235H43.8453V31.2897H81.8413V54.8235ZM44.2675 54.4032H81.4191V31.71H44.2675V54.4032Z" fill="#3F3D56"/>
<path d="M61.5966 45.7882L61.5602 45.3183C61.4514 44.3426 61.7781 43.2764 62.6858 42.1923C63.5027 41.2345 63.9565 40.5298 63.9565 39.7166C63.9565 38.7951 63.3756 38.1807 62.2319 38.1626C61.5778 38.16 60.9384 38.3554 60.3984 38.7228L59.9627 37.5844C60.5619 37.1506 61.5966 36.8615 62.5587 36.8615C64.6464 36.8615 65.5903 38.1446 65.5903 39.5178C65.5903 40.7467 64.9004 41.6321 64.0291 42.662C63.2304 43.6016 62.9399 44.3968 62.9944 45.3183L63.0125 45.7882L61.5966 45.7882ZM61.1972 48.3181C61.1875 48.1707 61.2085 48.0228 61.2591 47.8839C61.3096 47.745 61.3886 47.618 61.4909 47.511C61.5933 47.4041 61.7168 47.3194 61.8537 47.2623C61.9907 47.2053 62.138 47.1771 62.2864 47.1796C62.9218 47.1796 63.3575 47.6493 63.3575 48.3181C63.3635 48.463 63.34 48.6076 63.2884 48.7433C63.2368 48.879 63.1582 49.0028 63.0574 49.1075C62.9565 49.2121 62.8354 49.2954 62.7013 49.3523C62.5673 49.4092 62.4231 49.4385 62.2774 49.4385C62.1316 49.4385 61.9874 49.4092 61.8534 49.3523C61.7194 49.2954 61.5982 49.2121 61.4974 49.1075C61.3965 49.0028 61.3179 48.879 61.2663 48.7433C61.2147 48.6076 61.1912 48.463 61.1972 48.3181V48.3181Z" fill="#D0CDE1"/>
<path d="M137.378 40.5351L137.341 40.0652C137.232 39.0895 137.559 38.0233 138.467 36.9392C139.284 35.9814 139.737 35.2767 139.737 34.4635C139.737 33.542 139.157 32.9276 138.013 32.9096C137.359 32.9069 136.719 33.1023 136.179 33.4698L135.744 32.3313C136.343 31.8975 137.378 31.6084 138.34 31.6084C140.427 31.6084 141.371 32.8915 141.371 34.2647C141.371 35.4936 140.681 36.379 139.81 37.4089C139.011 38.3485 138.721 39.1437 138.775 40.0652L138.793 40.5351L137.378 40.5351ZM136.978 43.065C136.968 42.9176 136.989 42.7698 137.04 42.6308C137.091 42.4919 137.17 42.365 137.272 42.258C137.374 42.151 137.498 42.0663 137.635 42.0093C137.772 41.9522 137.919 41.9241 138.067 41.9266C138.703 41.9266 139.138 42.3963 139.138 43.065C139.144 43.2099 139.121 43.3546 139.069 43.4902C139.018 43.6259 138.939 43.7498 138.838 43.8544C138.737 43.9591 138.616 44.0423 138.482 44.0992C138.348 44.1561 138.204 44.1854 138.058 44.1854C137.913 44.1854 137.768 44.1561 137.634 44.0992C137.5 44.0423 137.379 43.9591 137.278 43.8544C137.177 43.7498 137.099 43.6259 137.047 43.4902C136.996 43.3546 136.972 43.2099 136.978 43.065V43.065Z" fill="#D0CDE1"/>
<path d="M102.659 73.8334C112.719 73.8334 120.875 65.7154 120.875 55.7014C120.875 45.6874 112.719 37.5694 102.659 37.5694C92.5991 37.5694 84.4438 45.6874 84.4438 55.7014C84.4438 65.7154 92.5991 73.8334 102.659 73.8334Z" fill="#2F2E41"/>
<path d="M95.624 80.5315L90.1785 79.5502L91.9447 68.2321L97.39 69.2134L95.624 80.5315Z" fill="#2F2E41"/>
<path d="M108.281 71.1758L102.835 70.1946L101.069 79.906L106.514 80.8873L108.281 71.1758Z" fill="#2F2E41"/>
<path d="M110.154 81.4163C110.343 80.4844 108.472 79.3223 105.976 78.8206C103.479 78.3189 101.302 78.6677 101.113 79.5996C100.924 80.5315 102.795 81.6936 105.291 82.1953C107.788 82.697 109.965 82.3482 110.154 81.4163Z" fill="#2F2E41"/>
<path d="M98.8124 81.1236C98.9378 80.1812 96.9928 79.1472 94.468 78.8143C91.9432 78.4814 89.7948 78.9755 89.6694 79.9179C89.5439 80.8604 91.489 81.8943 94.0138 82.2273C96.5386 82.5602 98.687 82.0661 98.8124 81.1236Z" fill="#2F2E41"/>
<path d="M103.934 57.4632C107.373 57.4632 110.16 54.6887 110.16 51.2662C110.16 47.8437 107.373 45.0692 103.934 45.0692C100.496 45.0692 97.7089 47.8437 97.7089 51.2662C97.7089 54.6887 100.496 57.4632 103.934 57.4632Z" fill="white"/>
<path d="M106.493 51.1106C107.639 51.1106 108.568 50.1857 108.568 49.0449C108.568 47.9041 107.639 46.9792 106.493 46.9792C105.347 46.9792 104.418 47.9041 104.418 49.0449C104.418 50.1857 105.347 51.1106 106.493 51.1106Z" fill="#3F3D56"/>
<path d="M88.2898 35.9758C88.0159 29.263 93.8279 23.5773 101.271 23.2763C108.715 22.9754 114.971 28.1731 115.245 34.8858C115.519 41.5986 110.345 43.1238 102.901 43.4247C95.4578 43.7257 88.5637 42.6885 88.2898 35.9758Z" fill="white"/>
<path d="M120.117 55.1722C125.02 54.0536 128.709 51.9047 128.356 50.3725C128.003 48.8404 123.743 48.5053 118.84 49.6239C113.937 50.7426 110.248 52.8915 110.601 54.4236C110.954 55.9557 115.214 56.2909 120.117 55.1722Z" fill="#2F2E41"/>
<path d="M84.3613 61.0912C89.2642 59.9725 92.9527 57.8236 92.5999 56.2915C92.2471 54.7594 87.9866 54.4242 83.0837 55.5429C78.1808 56.6616 74.4922 58.8104 74.845 60.3426C75.1978 61.8747 79.4584 62.2099 84.3613 61.0912Z" fill="#2F2E41"/>
<path d="M97.6563 62.847C97.5593 63.3808 97.5688 63.9285 97.6843 64.4587C97.7998 64.9889 98.0192 65.4913 98.3297 65.9371C98.6403 66.3829 99.0361 66.7635 99.4944 67.0571C99.9527 67.3507 100.465 67.5515 101.001 67.6482C101.537 67.7448 102.087 67.7354 102.62 67.6203C103.153 67.5053 103.657 67.287 104.105 66.9779C104.553 66.6687 104.936 66.2748 105.23 65.8185C105.525 65.3623 105.727 64.8527 105.824 64.3188C106.233 62.0737 104.489 61.2792 102.233 60.8727C99.9777 60.4663 98.0647 60.6018 97.6563 62.847Z" fill="white"/>
<path d="M63.3394 3.64841H33.3886V32.0081H63.3394V3.64841Z" fill="#D0CDE1"/>
<path d="M59.9359 7.03632H36.7921V24.6535H59.9359V7.03632Z" fill="white"/>
<path d="M49.3578 26.7319H36.7692V27.3914H49.3578V26.7319Z" fill="#F2F2F2"/>
<path d="M49.3578 28.7105H36.7692V29.37H49.3578V28.7105Z" fill="#F2F2F2"/>
<path d="M40.9102 18.4878C42.3738 18.4878 43.5604 17.3067 43.5604 15.8497C43.5604 14.3927 42.3738 13.2115 40.9102 13.2115C39.4465 13.2115 38.2599 14.3927 38.2599 15.8497C38.2599 17.3067 39.4465 18.4878 40.9102 18.4878Z" fill="#3F3D56"/>
<path d="M48.364 18.4878C49.8277 18.4878 51.0142 17.3067 51.0142 15.8497C51.0142 14.3927 49.8277 13.2115 48.364 13.2115C46.9003 13.2115 45.7137 14.3927 45.7137 15.8497C45.7137 17.3067 46.9003 18.4878 48.364 18.4878Z" fill="#6C63FF"/>
<path d="M55.8178 18.4878C57.2815 18.4878 58.468 17.3067 58.468 15.8497C58.468 14.3927 57.2815 13.2115 55.8178 13.2115C54.3541 13.2115 53.1675 14.3927 53.1675 15.8497C53.1675 17.3067 54.3541 18.4878 55.8178 18.4878Z" fill="#E6E6E6"/>
<path d="M48.364 6.61629C49.0958 6.61629 49.6891 6.02573 49.6891 5.29724C49.6891 4.56874 49.0958 3.97818 48.364 3.97818C47.6322 3.97818 47.0389 4.56874 47.0389 5.29724C47.0389 6.02573 47.6322 6.61629 48.364 6.61629Z" fill="#3F3D56"/>
<path d="M77.5852 58.5612H47.6344V86.9209H77.5852V58.5612Z" fill="#D0CDE1"/>
<path d="M74.1817 61.9491H51.0379V79.5663H74.1817V61.9491Z" fill="white"/>
<path d="M64.2443 64.8443H56.1307V72.9208H64.2443V64.8443Z" fill="#6C63FF"/>
<path d="M59.2367 66.864V76.6711H69.089V66.864H59.2367ZM68.6616 76.2457H59.664V67.2894H68.6616V76.2457Z" fill="#3F3D56"/>
<path d="M63.6036 81.3149H51.015V81.9744H63.6036V81.3149Z" fill="#F2F2F2"/>
<path d="M62.6098 61.5291C63.3417 61.5291 63.9349 60.9385 63.9349 60.21C63.9349 59.4815 63.3417 58.891 62.6098 58.891C61.878 58.891 61.2847 59.4815 61.2847 60.21C61.2847 60.9385 61.878 61.5291 62.6098 61.5291Z" fill="#3F3D56"/>
<path d="M155.564 50.071H125.614V78.4307H155.564V50.071Z" fill="#D0CDE1"/>
<path d="M152.161 53.4589H129.017V71.076H152.161V53.4589Z" fill="white"/>
<path d="M143.079 67.2505H138.1V68.7192H143.079V67.2505Z" fill="#3F3D56"/>
<path d="M149.098 55.8157H132.08V56.4452H149.098V55.8157Z" fill="#3F3D56"/>
<path d="M149.098 57.809H132.08V58.4384H149.098V57.809Z" fill="#3F3D56"/>
<path d="M149.098 59.8022H132.08V60.4316H149.098V59.8022Z" fill="#3F3D56"/>
<path d="M149.098 61.7954H132.08V62.4248H149.098V61.7954Z" fill="#3F3D56"/>
<path d="M149.098 63.7886H132.08V64.418H149.098V63.7886Z" fill="#3F3D56"/>
<path d="M141.583 72.8247H128.994V73.4842H141.583V72.8247Z" fill="#F2F2F2"/>
<path d="M146.552 74.4735H128.994V75.133H146.552V74.4735Z" fill="#F2F2F2"/>
<path d="M140.589 53.0388C141.321 53.0388 141.914 52.4483 141.914 51.7198C141.914 50.9913 141.321 50.4007 140.589 50.4007C139.857 50.4007 139.264 50.9913 139.264 51.7198C139.264 52.4483 139.857 53.0388 140.589 53.0388Z" fill="#3F3D56"/>
</g>
<defs>
<clipPath id="clip0">
<rect width="198.72" height="91.4918" fill="white" transform="translate(0.768005 0.891113)"/>
</clipPath>
</defs>
</svg>
